<?xml version="1.0" standalone="no"?>
<!DOCTYPE svg PUBLIC "-//W3C//DTD SVG 1.1//EN" "http://www.w3.org/Graphics/SVG/1.1/DTD/svg11.dtd" >
<svg xmlns="http://www.w3.org/2000/svg" xmlns:xlink="http://www.w3.org/1999/xlink" version="1.1">
<metadata></metadata>
<defs>
<font id="castathin" horiz-adv-x="966" >
<font-face units-per-em="2048" ascent="1536" descent="-512" />
<missing-glyph horiz-adv-x="532" />
<glyph unicode="&#xfb01;" horiz-adv-x="878" d="M47 846v20h229q-31 23 -66.5 68.5t-53.5 89.5q-24 60 -7.5 108.5t63.5 84.5t110.5 58t134.5 30t135 0l70 43v-250l-70 190q-6 1 -16.5 1.5t-42 1t-61 -2t-68 -10.5t-69.5 -22t-58.5 -39t-42 -58t-13.5 -83t21 -111q8 -24 25 -55t30 -44h408v-780q0 -57 102 -66v-20h-184 v780q0 57 -103 66h-223v-789l-82 -57h-102v31q4 0 11 -0.5t24.5 1t31 6.5t24.5 16.5t11 29.5v762h-168z" />
<glyph unicode="&#xfb02;" horiz-adv-x="921" d="M47 901v19h211q-76 37 -102 104q-31 75 -0.5 132t96.5 92t151.5 48.5t165.5 1.5q9 -1 56 -9.5t84 -8.5v-1194q0 -57 102 -66v-20h-184v1145q-6 6 -54 69t-51 66q-5 1 -14 1.5t-35.5 0.5t-51 -2.5t-56.5 -11t-57 -22t-47.5 -38t-33 -56.5t-8 -80t22.5 -107q9 -27 45 -45 h278v-19h-268v-844l-82 -57h-102v31q4 0 11 -0.5t24.5 1t31 6.5t24.5 16.5t11 29.5v817h-168z" />
<glyph unicode="&#xfb03;" horiz-adv-x="1292" d="M47 901v19h205q-148 85 -148 178q0 72 75.5 121t197.5 49q99 0 153.5 -32t67.5 -81q37 94 164 150t252 41l106 59l-37 -266l-69 192h-16t-39.5 -2.5t-57.5 -8t-64.5 -17.5t-65.5 -29t-54.5 -45.5t-38.5 -64t-11.5 -87t21.5 -112.5q9 -27 45 -45l418 2v-836q0 -57 102 -66 v-20h-184v836q0 56 -102 65h-224v-844l-81 -57h-103v31q4 0 11 -0.5t25 1t31.5 6.5t24.5 16.5t11 29.5v817h-365v-844l-82 -57h-102v31q4 0 11 -0.5t24.5 1t31 6.5t24.5 16.5t11 29.5v817h-168zM170 1109.5q7 -52.5 59 -124.5q34 -46 60 -65h416q-77 37 -103 104 q-17 38 -14 80q-12 135 -185 143q-34 2 -69.5 -0.5t-80 -17t-67.5 -41t-16 -79z" />
<glyph unicode="&#xfb04;" horiz-adv-x="1368" d="M47 901v19h205q-148 85 -148 178q0 72 75.5 121t197.5 49q101 0 156 -33.5t67 -83.5q37 84 163 124.5t253 22.5q10 -1 56 -9.5t83 -8.5v-1194q0 -57 102 -66v-20h-184v1145q-6 6 -53.5 69t-50.5 66q-5 1 -14 1.5t-35.5 0.5t-51 -2.5t-56.5 -11t-57.5 -22t-48 -38 t-33 -56.5t-8 -80t22.5 -107q9 -27 45 -45h285v-19h-275v-844l-81 -57h-103v31q4 0 11 -0.5t25 1t31.5 6.5t24.5 16.5t11 29.5v817h-365v-844l-82 -57h-102v31q4 0 11 -0.5t24.5 1t31 6.5t24.5 16.5t11 29.5v817h-168zM170 1109.5q7 -52.5 59 -124.5q34 -46 60 -65h416 q-77 37 -103 104q-17 39 -14 76q-10 139 -185 147q-34 2 -69.5 -0.5t-80 -17t-67.5 -41t-16 -79z" />
<glyph horiz-adv-x="0" />
<glyph horiz-adv-x="0" />
<glyph unicode="&#xd;" horiz-adv-x="512" />
<glyph unicode=" "  horiz-adv-x="532" />
<glyph unicode="&#x09;" horiz-adv-x="532" />
<glyph unicode="&#xa0;" horiz-adv-x="532" />
<glyph unicode="!" horiz-adv-x="448" d="M92 61l92 93l92 -93l-92 -92zM104 1296l19 23h92l-37 -877l-6 -6h-29z" />
<glyph unicode="&#x22;" horiz-adv-x="540" d="M0 1094q5 1 11.5 3.5t21 11.5t21.5 21t1 33.5t-30 46.5l-19 17l74 73l20 -22q54 -56 43 -99t-50 -69.5t-79 -26.5h-12zM287 1094q4 1 11 3.5t21.5 11.5t20.5 21t0 33.5t-31 46.5l-16 17l74 73l20 -22q54 -56 42.5 -99t-50.5 -69.5t-78 -26.5h-12z" />
<glyph unicode="#" horiz-adv-x="1069" d="M-25 268v21h279l82 352h-295v21h299l84 362h20l-84 -362h338l84 362h21l-84 -362h293v-21h-297l-82 -352h313v-21h-317l-84 -360h-21l84 360h-338l-82 -360h-20l82 360h-275zM274 289h338l82 352h-338z" />
<glyph unicode="$" horiz-adv-x="1015" d="M63 954q0 81 35.5 146.5t97.5 107.5t141 66t169 29v184h20v-182q122 1 187 -18t180 -81l-41 -282l-35 260q-3 4 -8.5 11t-28.5 24t-52.5 30t-83.5 24t-118 11v-672q43 -14 59.5 -19.5t61 -22t66 -26.5t60.5 -29t59.5 -34.5t48 -39t41.5 -46t24 -51t10 -59.5 q0 -53 -27 -103t-78 -92t-135.5 -70t-189.5 -32v-197h-20v197q-219 0 -404 49v285l72 -252q4 -3 12 -7t37.5 -14.5t64.5 -18.5t94 -14.5t124 -5.5v535q-51 18 -86.5 31.5t-85.5 36.5t-85 45t-72.5 54t-60.5 66.5t-38 79.5t-15 96zM145 975q0 -119 81.5 -201t279.5 -153v663 q-73 -3 -134 -20.5t-114 -52t-83 -95t-30 -141.5zM526 10q69 5 130 20.5t113 42.5t82 70.5t30 98.5q0 47 -23 88t-56 70t-85 57t-93.5 44.5t-97.5 35.5v-527z" />
<glyph unicode="%" horiz-adv-x="1212" d="M67.5 824.5q-10.5 77.5 8.5 170.5q32 137 117 200.5t176 43.5q52 -11 92 -49t59 -89t26 -111.5t-7 -117.5q-26 -119 -113 -196t-190 -55q-68 14 -113 70t-55.5 133.5zM95 977q-7 -61 4 -123.5t36.5 -111t67 -79t90.5 -30.5q45 0 96 29q67 49 96.5 145t19 188.5t-61 162 t-128.5 69.5q-46 0 -106 -31q-49 -39 -78 -98.5t-36 -120.5zM193 -51l829 1362h20l-829 -1362h-20zM673 205.5q-11 77.5 7 169.5q32 138 117.5 202t177.5 44q52 -11 92 -49t59 -89t25 -111.5t-8 -117.5q-24 -119 -111 -196.5t-190 -55.5q-68 14 -113 70t-56 133.5z M696.5 308q2.5 -75 25 -142t69.5 -109.5t106 -42.5q47 0 98 29q53 40 84 111t32.5 147.5t-16.5 146.5t-63.5 115t-107.5 45q-50 0 -109 -30q-59 -47 -90 -121t-28.5 -149z" />
<glyph unicode="&#x26;" horiz-adv-x="1243" d="M31 340q0 126 96 219.5t272 120.5q-118 195 -118 328q0 150 89 229.5t232 79.5q138 0 208.5 -76.5t70.5 -196.5q0 -68 -35 -130t-93 -107t-124.5 -77t-136.5 -50q147 -230 444 -567q108 66 158 217t2 262l-166 80h250l-19 -58q19 -51 15 -123t-23 -142.5t-68 -143 t-120 -125.5q20 -22 60.5 -67.5t59.5 -65.5h-98q-10 12 -23 26.5t-31 34.5t-30 33q-129 -74 -319 -74q-68 0 -141 13t-147.5 42.5t-132.5 71.5t-95 106t-37 140zM117 350q0 -89 39 -157.5t97 -106.5t131 -60.5t135 -28.5t116 -3q136 7 242 76q-103 117 -161 184.5 t-152.5 190t-153.5 219.5q-131 -24 -212 -101.5t-81 -212.5zM348 1052.5q0 -45.5 12 -96.5q24 -103 119 -258q87 23 162.5 67.5t128.5 118.5t53 160q0 124 -69.5 188t-178.5 64q-38 0 -90 -10q-6 -2 -16.5 -7t-27 -17.5t-32 -29t-30 -43.5t-23 -59t-8.5 -77.5z" />
<glyph unicode="'" horiz-adv-x="256" d="M0 1094q5 1 11.5 3.5t21 11.5t21.5 21t1 33.5t-30 46.5l-19 17l74 73l20 -22q54 -56 43 -99t-50 -69.5t-79 -26.5h-12z" />
<glyph unicode="(" horiz-adv-x="565" d="M41 600v21q0 128 30 249t79 211t109 158.5t122.5 103.5t116.5 35h26v-20h-16q-44 0 -93 -30.5t-97.5 -93t-87.5 -148t-63 -207t-24 -258.5v-21q0 -137 24 -258.5t63 -207t87.5 -148t97.5 -93t93 -30.5h16v-21h-26q-54 0 -116.5 35.5t-122.5 104t-109 158.5t-79 211 t-30 249z" />
<glyph unicode=")" horiz-adv-x="565" d="M41 -137h14q44 0 93 30.5t98 93t88 148t63.5 207t24.5 258.5v21q0 137 -24.5 258.5t-63.5 207t-88 148t-98 93t-93 30.5h-14v20h27q54 0 116 -35t122 -103.5t109 -158.5t79 -211t30 -249v-21q0 -128 -30 -249t-79 -211t-109 -158.5t-122 -104t-116 -35.5h-27v21z" />
<glyph unicode="*" horiz-adv-x="528" d="M61 1112l5 18l192 91l-192 92l-5 18l11 17l190 -121l-16 213l14 12h21l-15 -225l191 121l10 -17l-2 -18l-195 -92l195 -91l2 -18l-10 -18l-191 123l17 -216l-15 -10h-20l14 226l-190 -123z" />
<glyph unicode="+" horiz-adv-x="638" d="M61 508v12l15 8h233v248h13l8 -14v-234h248v-12l-17 -8h-231v-248h-13l-8 16v232h-248z" />
<glyph unicode="," horiz-adv-x="256" d="M55 -72q5 1 11.5 3.5t21 12t21.5 21.5t1 33.5t-30 46.5l-19 16l74 74l21 -22q54 -56 43 -99t-50 -69.5t-79 -26.5h-13z" />
<glyph unicode="-" horiz-adv-x="481" d="M61 508v12l15 8h346v-12l-16 -8h-345z" />
<glyph unicode="." horiz-adv-x="294" d="M55 61l92 93l93 -93l-93 -92z" />
<glyph unicode="/" horiz-adv-x="626" d="M37 -205l532 1610l19 -6l-533 -1610z" />
<glyph unicode="0" horiz-adv-x="1273" d="M82 641q0 119 35 230.5t100 201t167 143.5t226 54q88 0 171 -25t158 -78.5t131 -129.5t89 -185t33 -238q0 -119 -36 -230.5t-101.5 -200.5t-167 -143t-223.5 -54q-88 0 -171 25t-158 78t-131 129t-89 185t-33 238zM163.5 736.5q-0.5 -98.5 22.5 -212.5q25 -127 71 -223 t96 -149.5t112 -87t111.5 -44t101.5 -10.5q39 0 104 13q26 8 52 18.5t66.5 36.5t73 59.5t64 90t48 124.5t16.5 166t-23 213q-25 127 -70.5 222.5t-95.5 149t-111 87t-110 43.5t-100 10q-53 0 -103 -10q-26 -8 -52.5 -18.5t-67.5 -37t-74 -60t-65.5 -90t-49 -124.5 t-17 -166.5z" />
<glyph unicode="1" horiz-adv-x="368" d="M41 0v20q4 0 11 0.5t24.5 4t31 10t24.5 20.5t11 33v1049q0 27 -24 40t-48 12l-24 -1v14l178 78v-1192q0 -30 25.5 -47t51.5 -19l26 -2v-20h-287z" />
<glyph unicode="2" horiz-adv-x="995" d="M72 20q321 222 514.5 475t193.5 453q0 301 -313 301q-123 0 -274 -47l-27 -149l-72 204l92 -36q184 49 301 49q33 0 67 -3.5t74.5 -13t77 -24.5t71 -40t59.5 -57.5t40 -78.5t15 -101q0 -102 -53.5 -215t-151.5 -224.5t-222.5 -218t-277.5 -212.5h650l82 51l-37 -133h-795 z" />
<glyph unicode="3" horiz-adv-x="1015" d="M82 -12l72 205l26 -150q124 -43 271 -43q63 0 118 10t108 34.5t90.5 62.5t60 98.5t22.5 138.5q0 153 -122.5 252t-326.5 92q-65 -10 -102 -10l8 20q55 2 117.5 19t125.5 48.5t113.5 73t82.5 98t32 118.5q0 55 -23 95t-64 61t-89 30.5t-106 9.5q-161 0 -306 -49l-26 -149 l-72 204l92 -36q184 49 301 49q80 0 149.5 -13t128 -40t92.5 -74t34 -109q0 -55 -40 -109.5t-105.5 -97t-140 -75t-150.5 -52.5q94 -4 178 -24.5t156 -59t114.5 -104t42.5 -150.5q0 -80 -30 -146.5t-78 -110t-110.5 -73t-125.5 -42.5t-125 -13q-119 0 -303 48z" />
<glyph unicode="4" horiz-adv-x="944" d="M33 270l583 938v56h119v-932h78l82 51l-35 -133h-125v-162q0 -30 26.5 -47t52.5 -19l26 -2v-20h-289v20q4 0 11 0.5t24.5 4t31 10t24.5 20.5t11 33v162h-618zM94 332h559v897z" />
<glyph unicode="5" horiz-adv-x="942" d="M61 -2l72 205l27 -150q117 -45 237 -45q59 0 111 11t100.5 37t83.5 65t55.5 99t20.5 134q0 82 -26 142.5t-73 96t-106 52.5t-131 17q-133 0 -231 -56l-21 4l80 633l10 21h471l60 20l-33 -104h-494l-71 -553q117 69 274 69q53 0 104.5 -10t104.5 -35t93 -62.5t65.5 -98 t25.5 -136.5q0 -163 -127.5 -265.5t-324.5 -102.5q-121 0 -266 49z" />
<glyph unicode="6" horiz-adv-x="1052" d="M82 514q0 147 35.5 273.5t94 213.5t132.5 149t150 91t149 29q70 0 120 -12t111 -37l91 36l-70 -204l-29 149q-107 49 -202 49q-97 0 -183.5 -46.5t-148 -124.5t-104.5 -176t-60.5 -204t-9.5 -206q55 89 175 158t279 69q68 0 129.5 -18t114 -56t84 -105t31.5 -155 q0 -100 -53 -192.5t-146 -150.5t-199 -58q-234 0 -362.5 144t-128.5 384zM160 477q5 -86 36 -169.5t83 -151t129.5 -109t166.5 -41.5q31 0 60.5 5t42.5 11l14 5q8 3 20.5 8.5t47 27.5t62.5 47t56 68.5t38 91.5t-1.5 115.5t-52.5 140.5q-95 172 -284 172q-127 0 -252.5 -71.5 t-165.5 -149.5z" />
<glyph unicode="7" horiz-adv-x="813" d="M31 1130l45 134h723l8 -21q-126 -112 -231.5 -271t-171 -322t-101 -318t-35.5 -277v-55h-82v57q0 164 65.5 370.5t189 412.5t276.5 342h-602z" />
<glyph unicode="8" horiz-adv-x="1206" d="M82 330q0 70 37.5 129t97.5 96.5t125 60.5t129 31q-139 40 -228 124t-89 190q0 75 48 137.5t120.5 98.5t148 55.5t139.5 19.5q67 0 129 -9t123 -31t105.5 -56t72 -89t27.5 -124q0 -77 -55.5 -146.5t-132.5 -111.5t-158 -58q54 -11 107 -30t107.5 -49.5t95.5 -68t67 -89 t26 -109.5q0 -73 -34 -130t-86.5 -91t-124 -56t-139.5 -30t-140 -8q-69 0 -138 11t-138.5 37t-122.5 64.5t-86 98.5t-33 133zM154.5 343q1.5 -42 17.5 -89q26 -77 87 -130t129 -74.5t132 -32t106 -9.5l42 2q9 0 24 1t58 8.5t81.5 19t83.5 36t75.5 56.5t47 84t6.5 115 q-5 31 -19 60t-33.5 51.5t-49 43.5t-57 36t-65.5 30t-67 24.5t-69.5 20.5t-64.5 16.5t-61 13.5t-50 11q-20 -3 -41.5 -7.5t-53 -13.5t-60 -20.5t-59.5 -29t-56 -38t-45 -49.5t-30 -61.5t-8.5 -74.5zM229 948q7 -55 46 -103t91 -79t116.5 -55.5t116 -36t95.5 -17.5 q24 6 51 16t62 27t64 39t58.5 52.5t44.5 66.5t22 81t-9 97q-14 53 -47 93.5t-74.5 63t-88.5 37.5t-91 19t-80 5.5t-58 -0.5l-22 -1q-7 -1 -18.5 -3t-45 -11.5t-63.5 -22.5t-65.5 -37.5t-59.5 -54.5t-37.5 -76t-7.5 -100z" />
<glyph unicode="9" horiz-adv-x="1052" d="M82 868q0 100 53 192.5t145.5 151t198.5 58.5q235 0 363.5 -144t128.5 -385q0 -123 -25 -232.5t-68 -190.5t-99 -145.5t-119 -104.5t-126.5 -61t-123.5 -21q-70 0 -120.5 12t-111.5 37l-90 -37l72 205l26 -150q103 -47 203 -47q121 0 224 71t166.5 182t95 244t20.5 259 q-55 -89 -175.5 -158t-277.5 -69q-54 0 -104.5 11t-97.5 36.5t-81.5 63t-55.5 94.5t-21 128zM136 986.5q-10 -48.5 1.5 -116t52.5 -141.5q95 -172 285 -172q127 0 252.5 71.5t167.5 149.5q-5 85 -37 168.5t-84.5 151t-130 109.5t-166.5 42q-31 0 -60.5 -5t-42.5 -10l-14 -5 q-8 -3 -20.5 -8.5t-47 -27t-62.5 -47t-56 -68.5t-38 -91.5z" />
<glyph unicode=":" horiz-adv-x="294" d="M-12 66l92 92l92 -92l-92 -95zM-12 754l92 92l92 -92l-92 -92z" />
<glyph unicode=";" horiz-adv-x="458" d="M0 -72q5 1 11.5 3.5t21 12.5t21.5 22t1 33t-30 46l-19 18l74 74l20 -22q54 -57 43 -100.5t-50 -70t-79 -26.5h-12zM152 758l92 92l92 -92l-92 -92z" />
<glyph unicode="&#x3c;" horiz-adv-x="466" d="M61 430v19l345 311v-19l-252 -303l252 -301v-18z" />
<glyph unicode="=" horiz-adv-x="641" d="M61 535v14l15 6h504v-12l-15 -8h-504zM61 811v12l15 8h504v-12l-15 -8h-504z" />
<glyph unicode="&#x3e;" horiz-adv-x="466" d="M61 119v18l252 301l-252 303v19l345 -311v-19z" />
<glyph unicode="?" horiz-adv-x="864" d="M84 1294l90 -34q180 47 303 47q56 0 108 -12t98 -37t73.5 -70.5t27.5 -106.5q0 -58 -22.5 -110t-59.5 -91t-81 -75t-89 -70t-82.5 -68t-62.5 -76.5t-27 -88.5l-8 -180h-20l-10 180q-2 44 16.5 86.5t49 78t68.5 71.5t76.5 74t70 78t51.5 91t20 106q0 201 -232 201 q-110 0 -260 -47l-26 -149zM252 61l92 93l92 -93l-92 -92z" />
<glyph unicode="@" horiz-adv-x="1642" d="M61 485q0 169 68.5 310.5t182 233.5t257 143t295.5 51q108 0 211 -25t195 -77.5t161 -127.5t109.5 -182t40.5 -233q0 -222 -113 -371.5t-274 -149.5q-128 0 -177.5 77.5t-31.5 211.5q0 7 7 60.5t9 62.5q-183 -375 -401 -375q-96 0 -154.5 70.5t-70.5 189.5 q-8 81 8.5 162.5t54 149.5t88.5 121.5t117 83.5t135 30q152 0 260 -137l19 133h82l-80 -567q-6 -44 -6.5 -80.5t5 -62t14 -45t21.5 -31t25 -19t28.5 -11t27.5 -4.5t26 -1q146 0 253.5 140.5t107.5 358.5q0 125 -40 230.5t-107.5 177.5t-157.5 122.5t-189 73.5t-203 23 q-154 0 -295.5 -52t-249.5 -143.5t-172.5 -228t-64.5 -295.5q0 -185 84 -338.5t228 -241t317 -87.5q86 0 175 20.5t148 46.5l15 -16q-170 -72 -338 -72q-132 0 -251.5 52t-207.5 142.5t-139.5 220t-51.5 275.5zM461.5 422q-5.5 -64 7.5 -121q17 -94 61.5 -134t98.5 -38 q56 0 115.5 40t109 103.5t87.5 127t67 126.5l26 207q-22 29 -48.5 54.5t-80 52t-110.5 26.5q-59 0 -111.5 -26t-90 -69.5t-68 -101t-44.5 -120.5t-19.5 -127z" />
<glyph unicode="A" horiz-adv-x="1034" d="M16 0l97 53l376 1200q-11 4 -24 6t-20 1h-7v22h137l443 -1282h-193l-6 20h6t16 1.5t20.5 4t21 7t18 12t9.5 18.5t-3 25l-135 397h-500l-135 -436l99 -49h-220zM281 508h483l-246 723q-2 2 -5 6t-5 6z" />
<glyph unicode="B" horiz-adv-x="1036" d="M72 0v20q0 -2 25.5 4t51 20t25.5 30v1124q0 27 -25.5 42.5t-50.5 17.5l-26 2v20h475q87 0 156 -22.5t111.5 -60.5t69 -87.5t32.5 -103.5q2 -22 3 -45q1 -32 -5 -64q-8 -55 -31.5 -102.5t-60 -86.5t-81.5 -59q123 -18 188 -130q46 -81 46 -173q0 -31 -5 -64 q-24 -140 -136 -217q-96 -65 -236 -65h-526zM254 20h344q147 0 222 126q53 88 53 198q0 22 -2 46q-13 133 -89 199q-50 44 -116 44h-412v-613zM254 655h408q67 0 114 93q44 86 44 192q0 20 -2 42q-11 157 -110 230q-65 48 -161 48h-293v-605z" />
<glyph unicode="C" horiz-adv-x="1122" d="M61 647q0 126 41.5 240.5t117 203.5t193.5 142t261 53q98 0 250 -37l69 47v-280l-69 207q-107 49 -234 49q-116 0 -213.5 -35.5t-164.5 -97t-111.5 -142t-62.5 -170.5q-12 -62 -12 -125q0 -29 3 -59q9 -104 52.5 -203t115.5 -179t178.5 -131.5t231.5 -57.5h19 q99 0 187 47q96 52 154 151l10 -14q-62 -126 -175.5 -190t-250.5 -64q-121 0 -231.5 55t-188.5 145t-124 207t-46 238z" />
<glyph unicode="D" horiz-adv-x="1099" d="M72 0v20q4 1 11 2t24.5 6.5t31 11.5t24.5 16.5t11 21.5v1114q0 30 -25.5 47t-50.5 19l-26 2v20h495q206 0 338.5 -164.5t132.5 -441.5q0 -163 -49 -294.5t-130 -212.5t-179.5 -124t-202.5 -43h-405zM256 20h246q26 0 59.5 9.5t75 32t83 56t81 86t69 117t48 154.5 t18.5 193q0 263 -106.5 427.5t-262.5 164.5h-311v-1240z" />
<glyph unicode="E" horiz-adv-x="1005" d="M72 0v20q4 0 11 1.5t24.5 6t31 11t24.5 18.5t11 27v1108q0 30 -24.5 47t-49.5 19l-24 2v20h860v-197l-59 177h-621v-601h446l58 158v-328l-58 150h-446v-619h623l67 263v-283h-874z" />
<glyph unicode="F" d="M72 0v20q34 2 68 18.5t34 45.5v1108q0 35 -30.5 51.5t-67.5 16.5v20h860v-197l-59 177h-621v-601h444l58 158v-328l-58 150h-444v-639h-184z" />
<glyph unicode="G" horiz-adv-x="1206" d="M61 639q0 133 44 252.5t122.5 208.5t194.5 141.5t252 52.5q102 0 250 -37q0 1 33.5 24.5t35.5 23.5v-281l-69 209q-112 47 -234 47q-251 0 -407 -159.5t-156 -411.5q0 -123 46 -238t124.5 -201t191 -138t238.5 -52q93 0 176 42.5t139 117.5v282q0 35 -25 60.5t-63.5 37.5 t-75.5 16q-26 4 -49 4q-10 0 -20 -1v20h213l102 -63v-598l-71 223q-65 -102 -171.5 -156.5t-230.5 -54.5q-158 0 -295.5 91t-216 236t-78.5 302z" />
<glyph unicode="H" horiz-adv-x="1171" d="M72 -6v20q4 0 11 1.5t24.5 6t31 11t24.5 18.5t11 27v1108q0 30 -24.5 47t-49.5 19l-24 1v21h278v-21q-4 0 -10.5 -0.5t-23.5 -4t-30 -9.5t-23.5 -20t-10.5 -33v-533h659v533q0 30 -24.5 47t-48.5 19l-25 1v21h279v-21q-4 0 -10.5 -0.5t-24 -4t-30.5 -9.5t-23.5 -20 t-10.5 -33v-1108q0 -24 25.5 -40t51.5 -20l26 -4v-20h-287v20q4 0 11 1.5t24.5 6t31 11t24.5 18.5t11 27v555h-659v-555q0 -24 25.5 -40t50.5 -20l26 -4v-20h-286z" />
<glyph unicode="I" horiz-adv-x="409" d="M61 0v20q4 0 11 1.5t24.5 6t30.5 11t24 18.5t11 27v1108q0 30 -24.5 47t-49.5 19l-25 2v20h281v-20q-4 0 -11 -0.5t-24 -4t-30 -10t-24 -20.5t-11 -33v-1108q0 -24 25.5 -40t50.5 -20l26 -4v-20h-285z" />
<glyph unicode="J" horiz-adv-x="616" d="M61 -147q46 0 88 12.5t82 41t64 84.5t24 134v1069q0 29 -25.5 45.5t-51.5 18.5l-25 2v20h287v-20q-4 0 -11 -0.5t-25 -4t-31.5 -9.5t-24.5 -20t-11 -32v-1053q0 -309 -340 -309v21z" />
<glyph unicode="K" horiz-adv-x="1110" d="M72 0v20q4 0 11 1.5t24 6t30 11t24 18.5t11 27v1108q0 30 -24.5 47t-49.5 19l-24 2v20h180v-854l655 791l-108 63h198l-436 -518l529 -762h-240v20l42 8q44 13 44 36q0 9 -8 20l-424 608l-252 -299v-336l-80 -57h-102z" />
<glyph unicode="L" horiz-adv-x="890" d="M72 0v20q4 0 11 1.5t24 6t30 11t24 18.5t11 27v1108q0 30 -24.5 47t-49.5 19l-24 2v20h100l80 -57v-1203h553l67 263v-283h-802z" />
<glyph unicode="M" horiz-adv-x="1363" d="M31 0v20q4 0 11 1.5t24.5 6t31 11t24.5 18.5t11 27v1055l-61 141h90l524 -1237l524 1237h123v-31q-4 0 -11 -2t-24.5 -12.5t-31 -27t-24.5 -51t-11 -79.5v-993q0 -24 25.5 -40t51.5 -20l25 -4v-20h-184v1081l-451 -1065l7 -16h-91l-462 1096v-1096h-121z" />
<glyph unicode="N" horiz-adv-x="1116" d="M72 0v20q4 0 11 1.5t24.5 6t31 11t24.5 18.5t11 27v1042l-96 154h88l758 -1210v1210h120v-20q0 2 -25.5 -2.5t-51 -20.5t-25.5 -41v-1157l25 -39h-90l-684 1096v-1096h-121z" />
<glyph unicode="O" horiz-adv-x="1325" d="M63 682q5 159 79.5 296.5t208 222.5t296.5 85q174 0 319 -96t224 -250q74 -145 75 -307q0 -10 -1 -21q-5 -161 -81 -300.5t-209.5 -224.5t-293.5 -85q-171 0 -316 96t-226 252q-75 146 -75 308v24zM130 591q21 -109 77.5 -208t137.5 -170t180.5 -112.5t199.5 -41.5 q210 0 362 174q83 111 111 234q16 70 16 136q0 49 -10 96q-22 109 -79 209.5t-139 172.5t-183.5 115t-202.5 43q-212 0 -356 -174q-80 -117 -108 -241q-16 -71 -15 -136q0 -50 9 -97z" />
<glyph unicode="P" horiz-adv-x="983" d="M72 0v20q34 2 68 18.5t34 45.5v1108q0 35 -31 51.5t-67 16.5v20h481q180 0 293 -107.5t113 -285.5q0 -192 -127.5 -319.5t-319.5 -127.5h-260v-383l-80 -57h-104zM256 463h260q66 0 123.5 26.5t97.5 70.5t69 101t42.5 119t13.5 123q0 151 -79 254t-226 103h-301v-797z " />
<glyph unicode="Q" horiz-adv-x="1325" d="M61 647q4 132 50 248.5t124.5 203t192 137t246.5 50.5q121 0 233 -56t191 -146t124 -208q42 -108 42 -218v-19q-8 -223 -132 -393.5t-323 -222.5h334v-197l-58 176h-434q-122 0 -234 56t-190.5 145.5t-124.5 206.5q-41 109 -41 218v19zM127 608q22 -109 80.5 -209.5 t141.5 -173t184.5 -116t203.5 -43.5q204 0 350 167q79 104 103 223q13 61 13 119q0 55 -11 108q-24 108 -83.5 209.5t-142.5 175.5t-184.5 118.5t-201.5 44.5q-197 0 -336 -166q-82 -107 -110 -228q-17 -68 -17 -133q0 -49 10 -96z" />
<glyph unicode="R" horiz-adv-x="1054" d="M72 0v20q4 0 11 1.5t24.5 6t31 11t24.5 18.5t11 27v1108q0 30 -24.5 47t-49.5 19l-24 2v20h495q111 0 196.5 -40t128.5 -104q42 -66 60 -144q8 -34 8 -68q0 -45 -14 -90q-24 -80 -69.5 -147t-131 -112.5t-192.5 -52.5l98 -43l379 -479h-241v20l40 11q38 15 38 35 q0 9 -7 18l-346 436h-262v-463l-80 -57h-104zM256 543h262q156 0 255 129q85 111 89 259v17q0 140 -80 227q-78 85 -211 85h-315v-717z" />
<glyph unicode="S" horiz-adv-x="1036" d="M82 954q0 87 40.5 155.5t109.5 110.5t156 63.5t185 21.5q44 0 85 -5.5t66.5 -10.5t59.5 -19t45.5 -19.5t44.5 -24t37 -20.5l-41 -282l-34 260l-5.5 11t-22.5 24t-45.5 30t-77 24t-114.5 11q-61 0 -116.5 -9t-109.5 -31.5t-93.5 -57.5t-63.5 -90t-24 -125 q0 -117 79.5 -197.5t278.5 -150.5q15 -5 51 -17.5t57.5 -20.5t58.5 -22.5t61 -26t57 -29t54.5 -34t45 -38.5t37 -44t22.5 -49.5t9 -56.5q0 -55 -29.5 -107t-85 -95t-146.5 -69t-204 -26q-204 0 -389 49v285l72 -252q4 -3 11.5 -7t35 -14.5t58 -19t80.5 -15t103 -6.5 q77 0 148.5 13t133 39.5t99 73.5t37.5 108q0 32 -9.5 60.5t-29 53t-40.5 45t-54.5 39.5t-58.5 32.5t-65.5 29t-63 23.5t-63 21.5t-54.5 18.5q-190 69 -284.5 163.5t-94.5 225.5z" />
<glyph unicode="T" horiz-adv-x="878" d="M2 1083v197h875v-197l-58 177h-338v-1176q0 -24 25.5 -40t51.5 -20l26 -4v-20h-287v20q4 0 11 1.5t24.5 6t31 11t24.5 18.5t11 27v1176h-340z" />
<glyph unicode="U" horiz-adv-x="1236" d="M31 1260v20h180v-768q0 -246 111 -375t305 -129q86 0 155 26.5t116.5 72t79 110t46 138t14.5 157.5v711l-157 57h325l-147 -57v-711q-1 -88 -15.5 -162.5t-47.5 -143.5t-83.5 -117t-128.5 -76.5t-178 -28.5q-101 0 -183 29t-148.5 90.5t-104.5 168t-41 250.5v670 q0 30 -24.5 47t-48.5 19z" />
<glyph unicode="V" horiz-adv-x="1083" d="M6 1282h197l2 -20h-6t-15.5 -1.5t-20.5 -4t-21 -7.5t-17 -12.5t-8.5 -18.5t4.5 -26l444 -1131l465 1162l-149 59h196l-514 -1282h-57z" />
<glyph unicode="W" horiz-adv-x="1849" d="M6 1282h195l4 -20h-6t-16 -1.5t-20.5 -4t-21 -7.5t-17.5 -12.5t-9 -18.5t4 -26l446 -1131l346 865l-137 356h195l4 -20h-6t-16 -1.5t-20.5 -4t-21 -7.5t-17.5 -12.5t-9 -18.5t4 -26l444 -1131l467 1162l-151 59h196l-512 -1282h-59l-348 897l-361 -897h-57z" />
<glyph unicode="X" horiz-adv-x="1089" d="M51 0l55 59l408 559l-461 664h195l4 -20q-2 0 -5 -0.5t-11 -3t-15.5 -5t-15 -7.5t-11.5 -10.5t-3.5 -13t6.5 -16.5l372 -534l389 551l-163 59h243l-55 -59l-401 -570l452 -653h-194l-4 20q2 0 5 0.5t11 3t15.5 5t15 7.5t11.5 10.5t3.5 13t-6.5 16.5l-365 524l-391 -541 l158 -59h-242z" />
<glyph unicode="Y" horiz-adv-x="1003" d="M6 1282h197l2 -20q-2 0 -4.5 -0.5t-11.5 -2.5t-15.5 -5t-15 -7.5t-11.5 -10t-5 -13.5t5 -17l385 -637l406 652l-139 55h198l-452 -727v-465q0 -24 25.5 -40t51.5 -20l25 -4v-20h-184v526z" />
<glyph unicode="Z" d="M76 0l725 1260h-637l-60 -175v197h791l-725 -1262h657l60 177v-197h-811z" />
<glyph unicode="[" horiz-adv-x="565" d="M41 -158v1536h483v-20h-401v-1495h401v-21h-483z" />
<glyph unicode="\" horiz-adv-x="626" d="M37 1399l20 6l533 -1610l-21 -6z" />
<glyph unicode="]" horiz-adv-x="565" d="M41 -137h401v1495h-401v20h483v-1536h-483v21z" />
<glyph unicode="^" horiz-adv-x="497" d="M61 1116l189 225l186 -225l-4 -18l-16 -13l-166 248l-168 -248l-16 13z" />
<glyph unicode="_" horiz-adv-x="688" d="M61 0v12l15 8h551v-12l-17 -8h-549z" />
<glyph unicode="`" horiz-adv-x="425" d="M102 1303l11 16l16 6l195 -127l-2 -8z" />
<glyph unicode="a" horiz-adv-x="931" d="M80 223q9 81 49.5 132.5t108 76.5t136.5 39t163 33.5t159 46.5v139q0 111 -54 159t-142 48q-114 0 -256 -63l-64 -144l-2 236l58 -70q149 53 229 62q18 2 35 2q108 0 184 -60q90 -70 96 -223l-2 -580q0 -13 9 -21.5t23 -11t20.5 -3.5t11.5 -1v-20h-76l-70 57v117 q-164 -188 -354 -188q-114 0 -194 65q-70 57 -69 147q0 12 1 25zM180 233q-1 -9 0 -18q0 -80 48 -130q54 -56 143 -56q76 0 160.5 44t164.5 134v317q-50 -18 -118.5 -35.5t-118 -28t-103 -29.5t-88.5 -41.5t-59.5 -62.5t-28.5 -94z" />
<glyph unicode="b" horiz-adv-x="987" d="M61 0v20q37 0 70 24t33 40v1108q0 28 -24.5 45t-49.5 20l-24 3v20h106l72 -82v-530q19 29 43.5 57.5t68.5 67.5t104 63.5t126 24.5q158 0 242 -142q65 -108 65 -256q0 -25 -2 -52q-13 -184 -112 -307q-108 -133 -273 -134q-74 0 -145.5 27t-116.5 77v-37l-80 -57h-103z M244 131q26 -45 90 -78t137 -33q153 0 244 152q79 133 79 315q-1 177 -75 280q-62 85 -156 85t-186.5 -74.5t-132.5 -150.5v-496z" />
<glyph unicode="c" horiz-adv-x="972" d="M72 436q0 143 66.5 254.5t172.5 169.5t230 58h14q92 0 231 -37l78 47v-250l-96 182q-36 18 -96.5 30.5t-110.5 12.5q-113 0 -205.5 -46t-142 -121t-75.5 -165q-15 -50 -15 -101q-1 -40 9 -80q20 -90 67.5 -164.5t144 -121.5t223.5 -47q96 0 186.5 58.5t137.5 144.5 l10 -16q-62 -128 -170.5 -192t-222.5 -64q-59 1 -118 16.5t-116.5 51t-102 86t-72 127t-27.5 167.5z" />
<glyph unicode="d" horiz-adv-x="995" d="M104 440q14 184 112 307q107 134 273 134q75 0 146 -27t117 -78v416q0 30 -25 47t-49 19l-25 2v20h107l71 -82v-1114q0 -16 33 -40t70 -24v-20h-103l-79 57v146q-149 -213 -342 -213q-158 0 -242 142q-66 109 -66 257q0 25 2 51zM201 383q1 -177 75 -280q62 -85 156 -85 t187 75t133 151v493q-26 46 -90 79.5t-138 33.5q-153 0 -244 -152q-79 -133 -79 -315z" />
<glyph unicode="e" horiz-adv-x="1028" d="M72 444v19q0 195 134 325q141 136 347 136q89 0 161.5 -22.5t116 -57t73 -78t41 -82t11.5 -72.5h-817q-15 -56 -14 -120q0 -27 2 -56q21 -165 127.5 -265.5t284.5 -113.5q18 -1 35 -1q100 0 187 44q102 52 177 160l10 -14q-135 -258 -440 -258q-80 1 -156 32t-137.5 87.5 t-100 144t-42.5 192.5zM145 633h734q-1 6 -2.5 16t-10 38.5t-20.5 54.5t-36.5 58t-55.5 55t-79 38.5t-106 15.5q-153 0 -267 -74.5t-157 -201.5z" />
<glyph unicode="f" horiz-adv-x="604" d="M51 883v18h217q-30 18 -64 58.5t-52 82.5q-13 33 -13 63q0 34 18 65q34 58 106.5 89t161.5 43q49 7 97 7q38 0 74 -4l70 43v-250l-70 190q-6 1 -16 2t-40.5 1.5t-59.5 -1t-66 -9t-67 -19.5t-57 -35.5t-41 -54.5q-14 -30 -14 -75q0 -49 21 -108q23 -72 39 -88h364v-18 h-358v-826l-82 -57h-102v31q4 0 11 -0.5t24.5 1t31 6.5t24.5 16.5t11 29.5v799h-168z" />
<glyph unicode="g" horiz-adv-x="1091" d="M59 -252q0 50 19.5 98.5t46 82.5t62 65.5t59.5 47.5t47 28q-180 124 -180 366q0 143 66.5 254.5t172.5 169.5t230 58q77 0 155.5 -27.5t139.5 -83.5l77 194h82l-141 -210q123 -123 123 -322q0 -143 -66.5 -254.5t-172.5 -169t-230 -57.5q-127 0 -234 65 q-34 -19 -64 -40.5t-74.5 -63t-70.5 -97.5q-22 -51 -22 -107v-13q6 -123 80 -123q42 0 110 36t143.5 87.5t153.5 103t159.5 87.5t143.5 36q53 0 91 -25.5t51 -69.5q10 -30 10 -64q0 -16 -2 -34q-7 -54 -42.5 -118t-94.5 -123h-146q10 7 27 19t60 49t76 73t60 84.5t27 89.5 t-24 70t-72 29q-54 0 -126.5 -42.5t-143 -103.5l-141 -122t-140.5 -103.5t-121 -42.5q-71 0 -117.5 69t-46.5 154zM166 516q-1 -9 -1 -18q0 -80 29 -160q31 -88 89.5 -156t141 -110.5t171.5 -42.5q86 0 168 39q98 61 149.5 148.5t54.5 175.5q1 9 1 18q0 80 -29 160 q-31 88 -89.5 156t-141 110.5t-172.5 42.5q-86 0 -168 -39q-97 -61 -148.5 -148.5t-54.5 -175.5z" />
<glyph unicode="h" d="M61 0v20q4 0 10.5 0.5t24 4t30.5 10t23.5 20.5t10.5 33v1104q0 30 -24.5 47t-49.5 19l-25 2v20h107l72 -82v-614q136 327 323 327q32 0 64 -8t64.5 -27.5t57.5 -49t40.5 -76.5t15.5 -105v-557q0 -68 98 -68v-20h-178v631q0 125 -45 177t-129 52q-58 0 -111 -34.5 t-91.5 -90t-64.5 -106.5t-44 -103v-526h-179z" />
<glyph unicode="i" horiz-adv-x="430" d="M72 881v20h184v-815q0 -57 102 -66v-20h-184v815q0 57 -102 66zM123 1196l80 78l78 -78l-78 -80z" />
<glyph unicode="j" horiz-adv-x="344" d="M41 -457q4 1 11 3.5t24.5 16.5t31 35.5t24.5 64.5t11 99v1053q0 57 -102 66v20h184v-1053q0 -165 -54.5 -245t-129.5 -80v20zM104 1196l78 78l80 -78l-80 -80z" />
<glyph unicode="k" horiz-adv-x="1044" d="M61 0v20q4 0 11 0.5t25 4t31.5 9.5t24.5 19t11 31v1108q0 30 -24.5 47t-49.5 19l-24 2v20h106l72 -82v-821l602 477l-127 49v10h235l-405 -319l465 -594h-189v20q3 0 7.5 0.5t14 4t14 9.5t2 19t-16.5 31l-361 459l-241 -191l2 -295l-82 -57h-103z" />
<glyph unicode="l" horiz-adv-x="423" d="M72 1260v20h184v-1194q0 -57 102 -66v-20h-184v1206q0 54 -102 54z" />
<glyph unicode="m" horiz-adv-x="1542" d="M70 0v20q4 0 11 0.5t24 4t30 9.5t24 19t11 31v729q0 67 -98 70v18h108l72 -82v-157q42 106 124.5 176.5t205.5 70.5q39 0 78 -13.5t76 -41t61 -78.5t26 -119q21 49 49 91t67 79.5t91 59.5t111 22q41 0 80.5 -13.5t77 -42.5t60.5 -83.5t23 -126.5v-555q0 -68 99 -68v-20 h-178v629q0 229 -175 229q-59 0 -111 -25t-89.5 -65.5t-62 -78.5t-42.5 -79v-540l103 -70h-283v20q4 0 11 0.5t24 4t30 9.5t24 19t11 31v545q0 120 -47 178.5t-129 58.5q-62 0 -116.5 -23.5t-92.5 -62t-64 -81.5t-42 -89v-553l-80 -57h-102z" />
<glyph unicode="n" horiz-adv-x="960" d="M49 0v20q4 0 11 0.5t24.5 4t30.5 9.5t24 19t11 31v729q0 67 -99 70v18h107l73 -82v-284q11 31 21.5 58t29.5 66.5t39 72t48 66.5t57.5 57.5t67.5 38.5t79 15q32 0 64 -8t65 -27.5t58 -49t41 -77t16 -106.5v-553q0 -68 98 -68v-20h-180v627q0 126 -44.5 177.5t-127.5 51.5 q-56 0 -108 -32.5t-87 -77t-65.5 -103t-45.5 -99t-26 -77.5v-397l103 -70h-285z" />
<glyph unicode="o" horiz-adv-x="1042" d="M72 436q0 143 66.5 254.5t172.5 169.5t230 58q58 0 117.5 -16t117 -51.5t102 -86t72 -127.5t27.5 -168q0 -143 -67 -254.5t-173.5 -169t-230.5 -57.5q-58 0 -117 15.5t-116.5 51t-102 86.5t-71.5 127.5t-27 167.5zM124 516v-18q0 -80 28 -160q32 -88 90.5 -156 t141 -110.5t171.5 -42.5q86 0 168 39q97 61 149 148q50 88 54 176q0 9 1 18q-1 80 -29 160q-32 88 -90 156t-140.5 110.5t-171.5 42.5q-86 0 -168 -39q-97 -61 -148.5 -148.5t-55.5 -175.5z" />
<glyph unicode="p" horiz-adv-x="960" d="M35 881v20h102l80 -57v-146q149 213 342 213q158 0 242 -141q65 -108 65 -256q0 -25 -2 -51q-13 -184 -112 -308q-107 -134 -273 -135q-75 0 -145.5 27t-116.5 78v-453l-72 -82h-106v21h10.5t23.5 3.5t30 9.5t23.5 19.5t10.5 32.5v1141q0 64 -102 64zM217 164 q26 -46 89.5 -79.5t137.5 -33.5q153 0 244 152q79 133 79 315q0 177 -75 280q-61 85 -155 85t-187 -75t-133 -151v-493z" />
<glyph unicode="q" horiz-adv-x="960" d="M96 468q13 185 112 309q108 134 275 134q74 0 144.5 -26.5t115.5 -77.5v37l80 57h103v-20q-103 0 -103 -64v-1141q0 -30 24.5 -46.5t49.5 -17.5l25 -1v-21h-107l-72 82v561q-19 -29 -43.5 -57.5t-68.5 -67.5t-104 -63.5t-126 -24.5q-158 0 -242 142q-65 108 -65 255 q0 25 2 51zM268 134q62 -85 156 -85t186.5 74.5t132.5 150.5v496q-26 45 -89.5 78t-135.5 33q-154 0 -245 -152q-79 -131 -79 -311q0 -181 74 -284z" />
<glyph unicode="r" horiz-adv-x="694" d="M70 0v31q4 0 10.5 -0.5t23.5 1t30 6.5t23.5 18t10.5 32v725q0 68 -98 68v20h108l72 -82v-227q22 42 38.5 71t45 71t59.5 69.5t71 53.5q42 26 92 37q37 8 78 8q15 0 30 -1v-196l-52 143q-8 2 -21.5 4t-54 -6.5t-80.5 -32t-93.5 -85t-98.5 -153.5q-6 -11 -14 -45v-530h-180 z" />
<glyph unicode="s" horiz-adv-x="849" d="M102 676q0 59 29.5 107t77 76.5t102 43.5t109.5 15q126 0 237 -31l64 39v-230l-70 168q-95 35 -194 35q-131 0 -221.5 -57.5t-90.5 -141.5q0 -48 34 -84.5t88 -59.5t119 -42.5t130.5 -41t119.5 -48.5t88 -71t34 -103q0 -112 -83.5 -191t-219.5 -79q-17 0 -34.5 1 t-36.5 4.5t-33.5 6t-35 8t-31.5 8.5t-32.5 10t-29 9.5t-30 10.5t-26.5 9l-60 -41v244l64 -166q153 -80 283 -80q113 0 180 56t67 139q0 50 -33 87t-85.5 60t-116.5 42.5t-128 42.5t-116.5 52t-85.5 78t-33 115z" />
<glyph unicode="t" horiz-adv-x="598" d="M61 881v20h11q98 3 153.5 65t55.5 132q0 51 -20 76.5t-54 25.5v14h123q25 -46 25 -91q0 -23 -6 -43q-18 -64 -69 -113t-112 -66h352v-20h-237v-539q0 -165 49 -245t145 -89l53 182l17 -190h-70q-46 0 -82.5 7t-74.5 28.5t-62.5 57.5t-40.5 99.5t-16 149.5v539h-140z" />
<glyph unicode="u" d="M41 881v20h180v-620q0 -128 41 -179t133 -51q59 0 111 25t87 60.5t64 83t43.5 82t24.5 67.5v450q0 64 -100 64v18h182v-811q0 -70 98 -70v-20h-106l-74 84v225q-19 -49 -44.5 -94t-67 -98t-101.5 -85t-129 -32q-41 0 -81 13.5t-78 42.5t-61.5 83.5t-23.5 126.5v547 q0 68 -98 68z" />
<glyph unicode="v" horiz-adv-x="743" d="M2 901h182l6 -18h-5t-12.5 -1.5t-16.5 -4t-17 -7t-13.5 -11.5t-6.5 -17t4 -23l309 -790l270 811l-155 61h196l-299 -901h-88z" />
<glyph unicode="w" horiz-adv-x="1384" d="M6 901h182l7 -18h-5t-12.5 -1.5t-16.5 -4t-17 -7t-13.5 -11.5t-7 -17t3.5 -23l281 -788l270 780l-35 90h182l9 -18h-5.5t-13.5 -1.5t-17 -4t-17.5 -7t-14.5 -11.5t-6.5 -17t4.5 -23l309 -790l270 811l-155 61h194l-297 -901h-90l-307 784l-270 -784h-88z" />
<glyph unicode="x" horiz-adv-x="847" d="M20 0l371 432l-362 469h215l6 -18q-68 -3 -68 -31q0 -12 15 -33l249 -327l312 360l-127 49h196l-366 -426l364 -475h-215l-8 18q66 3 66 35q0 18 -21 45l-244 316l-313 -365l127 -49h-197z" />
<glyph unicode="y" horiz-adv-x="897" d="M12 901h215l6 -18h-7t-16.5 -0.5t-22 -2.5t-22.5 -6.5t-18 -11.5t-8.5 -17.5t6.5 -25.5l357 -747l350 780l-152 49h197l-569 -1270q-30 -66 -63 -86t-89 -20v125l43 -64h6q55 0 82 49l150 336z" />
<glyph unicode="z" horiz-adv-x="833" d="M61 0l592 881h-526l-61 -170l-3 204l33 -14h664l-590 -881h504l63 170l2 -204l-32 14h-646z" />
<glyph unicode="{" horiz-adv-x="675" d="M41 600v21h14q90 0 131 85.5t41 262.5v55q0 78 21.5 139.5t57 101t85.5 65.5t103.5 37t113.5 11h27v-20h-17q-307 0 -307 -326v-55q0 -128 -51 -231t-127 -125h-22v-21h22q76 -22 127 -124.5t51 -229.5v-58q0 -325 307 -325h17v-21h-27q-60 0 -114 11t-103.5 37.5 t-85 66.5t-57 101.5t-21.5 138.5v57q0 176 -41 261t-131 85h-14z" />
<glyph unicode="|" horiz-adv-x="143" d="M63 -131v1696h21v-1696h-21z" />
<glyph unicode="}" horiz-adv-x="675" d="M41 -137h14q310 0 310 325v58q0 128 50.5 230.5t127.5 123.5h20v21h-20q-77 21 -127.5 124t-50.5 232v55q0 326 -310 326h-14v20h27q60 0 113.5 -11t103 -37t84.5 -65.5t56 -101t21 -139.5v-55q0 -177 41 -262.5t131 -85.5h17v-21h-17q-90 0 -131 -85t-41 -261v-57 q0 -96 -31.5 -167t-86 -111t-119.5 -58.5t-141 -18.5h-27v21z" />
<glyph unicode="~" horiz-adv-x="690" d="M61 584q0 28 5 52.5t19 53.5t46 46.5t80 17.5q57 0 148 -48.5t141 -48.5q108 0 108 97h21q0 -20 -2.5 -39.5t-12 -44.5t-25.5 -43t-45 -30.5t-67 -12.5q-58 0 -148.5 48t-140.5 48q-51 0 -78.5 -20.5t-27.5 -75.5h-21z" />
<glyph unicode="&#xa1;" horiz-adv-x="448" d="M238 885l92 92l92 -92l-92 -92zM299 -373l37 877l6 6h29l39 -860l-19 -23h-92z" />
<glyph unicode="&#xa2;" horiz-adv-x="952" d="M51 436q0 208 132 341t319 141v106h20v-106q106 0 242 -37l80 47v-250l-96 182q-45 22 -107.5 33.5t-118.5 9.5v-846q108 -1 201 53t147 150l11 -16q-58 -119 -155 -182.5t-204 -71.5v-103h-20v101q-59 1 -119.5 16.5t-120.5 51t-106.5 86t-75.5 127t-29 167.5zM107 481 q-3 -104 36 -194.5t132.5 -154.5t226.5 -73v844q-120 -9 -211.5 -73t-136 -154.5t-47.5 -194.5z" />
<glyph unicode="&#xa3;" horiz-adv-x="995" d="M61 512l9 35l188 -6q-73 123 -96 179q-39 99 -39 198q0 182 117.5 288.5t300.5 106.5q54 0 111.5 -8t92.5 -16t99 -25l90 36l-72 -204l-26 149q-165 49 -279 49q-332 0 -332 -376q0 -52 7 -100.5t26.5 -106.5t28 -80t35.5 -90l403 6l-10 -35l-383 4q63 -151 63 -250 q0 -89 -58.5 -153.5t-131.5 -92.5h620l68 263v-283h-803v20q6 0 15.5 0.5t36.5 6t52 14t55.5 27t52.5 43.5t37 65.5t15 89.5q0 113 -84 252z" />
<glyph unicode="&#xa4;" horiz-adv-x="1234" d="M141 250l150 149q-127 130 -127 318q0 184 125 315l-148 146l15 14l147 -145q130 124 315 124q186 0 316 -124l145 145l15 -14l-146 -146q125 -131 125 -315t-127 -318l148 -149l-15 -14l-147 149q-129 -123 -314 -123q-180 0 -313 123l-149 -149zM184 717 q0 -179 128 -306.5t306 -127.5q179 0 307 128t128 306t-128 306t-307 128q-178 0 -306 -127.5t-128 -306.5z" />
<glyph unicode="&#xa5;" horiz-adv-x="1114" d="M57 1282h197l2 -20q-2 0 -4.5 -0.5t-11.5 -2.5t-15 -5l-15 -7.5t-11.5 -10t-4.5 -13.5t5 -17l385 -637l405 652l-139 55h199l-453 -727v-23l401 6l-10 -34l-391 6v-182l401 4l-10 -33l-391 6v-215q0 -24 25.5 -40t50.5 -20l26 -4v-20h-184v297l-223 -4l10 33l213 -4v180 l-223 -2l10 32l213 -4z" />
<glyph unicode="&#xa6;" horiz-adv-x="143" d="M61 -131v807h21v-807h-21zM61 758v807h21v-807h-21z" />
<glyph unicode="&#xa7;" horiz-adv-x="1077" d="M205 631q0 118 92.5 184t234.5 76q-52 18 -90.5 33.5t-86 43t-78 57.5t-51.5 74.5t-21 96.5q0 85 53 146t133.5 88.5t179.5 27.5q33 0 64 -4t50 -7.5t45 -14.5t33.5 -14.5t33.5 -18t28 -15.5l-30 -210l-27 192q-2 3 -5.5 8.5t-19.5 19t-37 23.5t-60 18.5t-87 8.5 q-58 0 -107.5 -12t-92.5 -37.5t-68 -72.5t-25 -110q0 -91 59 -151t207 -115l27 -9q37 -12 57.5 -19.5t58.5 -22.5t60.5 -27.5t51.5 -32.5t45.5 -39.5t28 -46t11.5 -55.5q0 -90 -91 -156.5t-255 -66.5q-106 0 -194 16q64 -58 200 -106q10 -4 38.5 -13.5t44 -15t44 -17 t46 -19.5t42.5 -21.5t40.5 -25.5t33.5 -29t28 -33.5t16.5 -37t6.5 -42.5q0 -88 -91 -154.5t-255 -66.5q-149 0 -293 37v213l54 -189q9 -5 25.5 -13t73 -21t120.5 -13q78 0 145 16t116.5 57.5t49.5 102.5q0 26 -10.5 50.5t-24.5 43t-40 37t-46 30t-54.5 26.5t-53 21.5t-54 19 t-45.5 16.5q-143 51 -213.5 121.5t-70.5 169.5zM266 645q0 -70 31 -117q85 -41 209 -41q56 0 109 10t99.5 29.5t74.5 54.5t28 81q0 41 -21 75.5t-61 60.5t-76.5 43.5t-87.5 35.5h-12q-58 0 -107.5 -11.5t-92.5 -37t-68 -72.5t-25 -111z" />
<glyph unicode="&#xa8;" horiz-adv-x="645" d="M35 1143l92 92l92 -92l-92 -92zM289 1143l92 92l94 -92l-94 -92z" />
<glyph unicode="&#xa9;" horiz-adv-x="1310" d="M61 633q0 162 79.5 299t216.5 216t298 79t298 -79t216.5 -216t79.5 -299q0 -161 -79.5 -298t-216.5 -216.5t-298 -79.5t-298 79.5t-216.5 216.5t-79.5 298zM82 633q0 -118 47.5 -225t126 -183t183.5 -121t216 -45q149 0 281 75.5t212.5 208.5t80.5 290q0 119 -47.5 226 t-126.5 182.5t-183.5 120t-216.5 44.5q-149 0 -280.5 -74.5t-212 -207.5t-80.5 -291zM209 635q0 106 43.5 196t133 147.5t208.5 57.5q50 0 158 -22l43 28v-176l-43 131q-76 29 -148 29q-91 0 -163.5 -34t-115 -90t-62 -125.5t-13.5 -143.5q7 -89 51 -168.5t126.5 -133.5 t186.5 -59q69 -3 130 30t96 95l8 -8q-40 -80 -111 -120t-157 -40q-153 -1 -262 123.5t-109 282.5z" />
<glyph unicode="&#xaa;" horiz-adv-x="659" d="M104 467v20h496v-20h-496zM147 731q6 53 32.5 86.5t70.5 50t89.5 25.5t107 22t104.5 31v90q0 135 -129 135q-76 0 -168 -41l-41 -94l-2 154l39 -45q97 34 147 41q85 8 144 -38t63 -147v-378q0 -11 10 -17.5t20 -7.5h11v-12h-49l-45 37v75q-109 -123 -232 -123 q-75 0 -127 43t-45 113zM213 737q-4 -61 31 -97t94 -36q110 0 213 115v209q-38 -14 -93 -27t-91.5 -23t-73 -26t-57 -44.5t-23.5 -70.5z" />
<glyph unicode="&#xab;" horiz-adv-x="772" d="M61 430v19l345 311v-19l-252 -303l252 -301v-18zM367 430v19l344 311v-19l-252 -303l252 -301v-18z" />
<glyph unicode="&#xac;" horiz-adv-x="937" d="M61 715v12l15 8h801v-489h-13l-8 16v453h-795z" />
<glyph unicode="&#xad;" horiz-adv-x="641" d="M61 545v12l15 8h504v-14l-17 -6h-502z" />
<glyph unicode="&#xae;" horiz-adv-x="921" d="M61 920q0 166 117 282.5t283 116.5q165 0 282 -117t117 -282q0 -164 -117.5 -282t-281.5 -118q-165 0 -282.5 117.5t-117.5 282.5zM82 920q0 -157 111 -268t268 -111t268 111t111 268t-111 267.5t-268 110.5t-268 -110.5t-111 -267.5zM262 672v8q41 5 41 25v442 q0 12 -9.5 18.5t-19.5 7.5l-10 1v8h199q61 0 101.5 -30t49 -73t-3 -87t-53 -76.5t-100.5 -36.5l39 -17l151 -190h-96v8l22 7q15 8 7 18l-140 174h-104v-185l-31 -22h-43zM336 887h104q77 0 116.5 71.5t14 143.5t-107.5 72h-127v-287z" />
<glyph unicode="&#xaf;" horiz-adv-x="751" d="M102 1313v14l17 6h530v-12l-14 -8h-533z" />
<glyph unicode="&#xb0;" horiz-adv-x="598" d="M61 1155q0 100 70 170t168 70t168 -70t70 -170q0 -98 -70 -167.5t-168 -69.5t-168 69.5t-70 167.5zM82 1155q0 -89 64 -153t153 -64q90 0 153.5 63.5t63.5 153.5q0 91 -63 155t-154 64q-89 0 -153 -64t-64 -155z" />
<glyph unicode="&#xb1;" horiz-adv-x="641" d="M61 248v12l17 8h502v-12l-15 -8h-504zM61 705v12l17 8h233v248h13l8 -15v-233h248v-14l-15 -6h-233v-250h-13l-8 14v236h-250z" />
<glyph unicode="&#xb2;" horiz-adv-x="823" d="M29 481q211 147 338 313.5t127 297.5q0 196 -205 196q-88 0 -183 -31l-16 -98l-47 135l59 -24q130 33 199 33q41 0 81 -8.5t84 -29.5t71.5 -65t27.5 -106q0 -131 -127 -280t-336 -292h428l54 33l-25 -88h-522z" />
<glyph unicode="&#xb3;" horiz-adv-x="819" d="M10 444l47 138l19 -101q92 -30 182 -30q53 0 98 11.5t84 37t61.5 72t22.5 110.5q0 102 -82.5 168.5t-218.5 60.5q-40 -6 -67 -6l4 15q64 2 135 30t125.5 84t54.5 123q0 71 -53 101t-135 30q-113 0 -205 -33l-16 -100l-50 137l62 -24q126 32 203 32q114 0 191 -38t77 -119 q0 -70 -89.5 -131.5t-201.5 -91.5q62 -2 118 -16t104.5 -39.5t77 -69.5t28.5 -101q0 -66 -30 -118t-78 -81.5t-100.5 -44t-105.5 -14.5q-66 0 -202 33z" />
<glyph unicode="&#xb4;" horiz-adv-x="425" d="M164 1198l194 127l17 -6l10 -16l-219 -113z" />
<glyph unicode="&#xb6;" horiz-adv-x="1337" d="M123 1202q0 151 105.5 257t256.5 106h729v-21h-278v-1675h-21v1675h-288v-1675h-21v973h-121q-151 0 -256.5 105.5t-105.5 254.5z" />
<glyph unicode="&#xb7;" horiz-adv-x="393" d="M-12 629l92 92l92 -92l-92 -92z" />
<glyph unicode="&#xb8;" horiz-adv-x="542" d="M102 -246l39 -108q33 -19 82 -19q56 0 85.5 33.5t29.5 97.5t-36.5 97.5t-94.5 33.5h-51l-11 21l88 156h50l-109 -156h33q95 0 164 -40t69 -112q0 -71 -67 -111t-150 -40q-61 0 -121 22v125z" />
<glyph unicode="&#xb9;" horiz-adv-x="630" d="M125 467v14q3 0 7 0.5t15.5 2.5t20 6t15.5 13t7 21v680q0 17 -15 25.5t-31 8.5l-15 -1v10l115 49v-772q0 -19 17 -30t33 -12l17 -1v-14h-186z" />
<glyph unicode="&#xba;" horiz-adv-x="741" d="M55 872q0 138 88 224t211 86q48 0 95.5 -17t90 -50t69 -90.5t26.5 -129.5q0 -136 -89.5 -222.5t-211.5 -86.5q-48 0 -95 16.5t-89.5 49.5t-68.5 90t-26 130zM88.5 924q-2.5 -57 18 -113.5t58 -100.5t90.5 -71t110 -27q48 0 106 25q62 39 95 95t35 113t-18 113.5t-57 100 t-90 71t-110 27.5q-52 0 -107 -24q-62 -40 -95 -96t-35.5 -113zM106 467v20h547v-20h-547z" />
<glyph unicode="&#xbb;" horiz-adv-x="772" d="M61 119v18l252 301l-252 303v19l345 -311v-19zM367 119v18l254 301l-254 303v19l344 -311v-19z" />
<glyph unicode="&#xbc;" horiz-adv-x="1003" d="M-25 608v10h5.5t12 2t15 5t12 9t5.5 15v504q0 13 -11 19t-22 6h-12v6l83 37v-572q0 -14 12.5 -21.5t24.5 -8.5l13 -1v-10h-138zM63 -51l830 1362h20l-829 -1362h-21zM483 182l285 455v29h57v-455h39l39 27l-16 -66h-62v-80q0 -15 13 -23t26 -9l13 -1v-10h-142v10 q6 0 14.5 1t22.5 9t14 23v80h-301zM514 211h272v436z" />
<glyph unicode="&#xbd;" horiz-adv-x="1208" d="M-25 608v10h5.5t12 2t15 5t12 9t5.5 15v504q0 13 -11 19t-22 6h-12v6l83 37v-572q0 -14 12.5 -21.5t24.5 -8.5l13 -1v-10h-138zM63 -51l830 1362h20l-829 -1362h-21zM655 66q156 108 251 231t95 221q0 148 -153 148q-52 0 -133 -23l-15 -74l-34 101l45 -19q94 25 147 25 q31 0 61 -6.5t63 -22t53 -48.5t20 -79q0 -97 -94 -208t-250 -218h317l39 27l-16 -66h-389z" />
<glyph unicode="&#xbe;" horiz-adv-x="1159" d="M0 596l35 98l14 -71q61 -21 131 -21q83 0 138 38.5t55 127.5q0 75 -60 123.5t-161 44.5q-24 -6 -46 -6l5 10q75 3 151 52.5t76 119.5q0 96 -139 96q-66 0 -146 -22l-12 -74l-35 100l43 -18q90 23 148 23q83 0 138.5 -27.5t55.5 -85.5q0 -52 -64.5 -96t-146.5 -66 q99 -5 169.5 -46t70.5 -120q0 -62 -38.5 -106.5t-87.5 -62t-101 -17.5q-49 0 -148 22zM219 -51l830 1362h20l-829 -1362h-21zM639 182l285 455v29h57v-455h39l39 27l-17 -66h-61v-80q0 -15 12.5 -23t25.5 -9l13 -1v-10h-139v10q5 0 13.5 1t22 9t13.5 23v80h-301zM670 211 h272v436z" />
<glyph unicode="&#xbf;" horiz-adv-x="911" d="M47 -119q0 58 22.5 110t59.5 91t81 75t89 70t82.5 68.5t62.5 77t27 88.5q8 108 8 180h21q2 -29 5.5 -99.5t4.5 -80.5q2 -44 -16.5 -86.5t-49 -78.5t-68.5 -71.5t-76.5 -74t-70 -78.5t-51.5 -91t-20 -106q0 -201 231 -201q110 0 260 47q2 13 7.5 44.5t12 65t7.5 40.5 q6 -16 37.5 -105t34.5 -98q-4 1 -21.5 8t-39 15.5t-30.5 11.5q-180 -47 -303 -47q-56 0 -108 11.5t-98 36.5t-73.5 70.5t-27.5 106.5zM395 901l92 92l93 -92l-93 -92z" />
<glyph unicode="&#xc0;" horiz-adv-x="1034" d="M16 0l97 53l376 1200q-11 4 -24 6t-20 1h-7v22h137l443 -1282h-193l-6 20h6t16 1.5t20.5 4t21 7t18 12t9.5 18.5t-3 25l-135 397h-500l-135 -436l99 -49h-220zM281 508h483l-246 723q-2 2 -5 6t-5 6zM424 1499l10 17l17 6l194 -127l-2 -9z" />
<glyph unicode="&#xc1;" horiz-adv-x="1034" d="M16 0l97 53l376 1200q-11 4 -24 6t-20 1h-7v22h137l443 -1282h-193l-6 20h6t16 1.5t20.5 4t21 7t18 12t9.5 18.5t-3 25l-135 397h-500l-135 -436l99 -49h-220zM281 508h483l-246 723q-2 2 -5 6t-5 6zM424 1395l194 127l17 -6l10 -17l-219 -113z" />
<glyph unicode="&#xc2;" horiz-adv-x="1034" d="M16 0l97 53l376 1200q-11 4 -24 6t-20 1h-7v22h137l443 -1282h-193l-6 20h6t16 1.5t20.5 4t21 7t18 12t9.5 18.5t-3 25l-135 397h-500l-135 -436l99 -49h-220zM281 508h483l-246 723q-2 2 -5 6t-5 6zM313 1409l222 123l213 -123l-11 -16l-16 -7l-186 138l-195 -138l-16 7 z" />
<glyph unicode="&#xc3;" horiz-adv-x="1034" d="M16 0l97 53l376 1200q-11 4 -24 6t-20 1h-7v22h137l443 -1282h-193l-6 20h6t16 1.5t20.5 4t21 7t18 12t9.5 18.5t-3 25l-135 397h-500l-135 -436l99 -49h-220zM281 508h483l-246 723q-2 2 -5 6t-5 6zM383 1386q0 28 19 55t59 27q32 0 78.5 -23.5t74.5 -23.5q48 0 48 47 h20q0 -28 -19 -55t-59 -27q-31 0 -78 24t-75 24q-48 0 -48 -48h-20z" />
<glyph unicode="&#xc4;" horiz-adv-x="1034" d="M16 0l97 53l376 1200q-11 4 -24 6t-20 1h-7v22h137l443 -1282h-193l-6 20h6t16 1.5t20.5 4t21 7t18 12t9.5 18.5t-3 25l-135 397h-500l-135 -436l99 -49h-220zM281 508h483l-246 723q-2 2 -5 6t-5 6zM319 1479l93 92l92 -92l-92 -93zM573 1479l95 92l92 -92l-92 -93z" />
<glyph unicode="&#xc5;" horiz-adv-x="1034" d="M16 0l97 53l376 1200q-11 4 -24 6t-20 1h-7v22h137l443 -1282h-193l-6 20h6t16 1.5t20.5 4t21 7t18 12t9.5 18.5t-3 25l-135 397h-500l-135 -436l99 -49h-220zM281 508h483l-246 723q-2 2 -5 6t-5 6zM354 1550q0 68 48 116t116 48q69 0 116.5 -48t47.5 -116t-47.5 -116 t-116.5 -48q-68 0 -116 48t-48 116zM375 1550q0 -60 42 -101.5t101 -41.5q60 0 102 41.5t42 101.5q0 59 -42 101.5t-102 42.5q-58 0 -100.5 -42.5t-42.5 -101.5z" />
<glyph unicode="&#xc6;" horiz-adv-x="1701" d="M102 0l97 53l669 1080v59q0 30 -24.5 47t-49.5 19l-24 2v20h860v-197l-59 177h-621v-601h447l57 158v-328l-57 150h-447v-619h623l67 263v-283h-874v20q4 0 11 1.5t24.5 6t31 11t24.5 18.5t11 27v401h-376l-271 -436l98 -49h-217zM506 508h362v586z" />
<glyph unicode="&#xc7;" horiz-adv-x="1122" d="M61 647q0 126 41.5 240.5t117 203.5t193.5 142t261 53q98 0 250 -37l69 47v-280l-69 207q-107 49 -234 49q-116 0 -213.5 -35.5t-164.5 -97t-111.5 -142t-62 -170.5t-9.5 -184q9 -104 52.5 -203t115.5 -179t178.5 -131.5t231.5 -57.5q110 -5 206 47t154 151l10 -14 q-61 -123 -170.5 -187t-242.5 -67l-66 -92h33q95 0 164 -40t69 -112q0 -71 -67 -111t-150 -40q-61 0 -121 22v125l39 -108q33 -19 82 -19q56 0 85.5 33.5t29.5 97.5t-36.5 97.5t-94.5 33.5h-51l-11 21l54 92q-154 9 -284.5 103.5t-204 239.5t-73.5 302z" />
<glyph unicode="&#xc8;" horiz-adv-x="1005" d="M72 0v20q4 0 11 1.5t24.5 6t31 11t24.5 18.5t11 27v1108q0 30 -24.5 47t-49.5 19l-24 2v20h860v-197l-59 177h-621v-601h446l58 158v-328l-58 150h-446v-619h623l67 263v-283h-874zM406 1499l10 17l16 6l195 -127l-2 -9z" />
<glyph unicode="&#xc9;" horiz-adv-x="1005" d="M72 0v20q4 0 11 1.5t24.5 6t31 11t24.5 18.5t11 27v1108q0 30 -24.5 47t-49.5 19l-24 2v20h860v-197l-59 177h-621v-601h446l58 158v-328l-58 150h-446v-619h623l67 263v-283h-874zM406 1395l194 127l16 -6l11 -17l-219 -113z" />
<glyph unicode="&#xca;" horiz-adv-x="1005" d="M72 0v20q4 0 11 1.5t24.5 6t31 11t24.5 18.5t11 27v1108q0 30 -24.5 47t-49.5 19l-24 2v20h860v-197l-59 177h-621v-601h446l58 158v-328l-58 150h-446v-619h623l67 263v-283h-874zM295 1409l221 123l213 -123l-10 -16l-17 -7l-186 138l-194 -138l-17 7z" />
<glyph unicode="&#xcb;" horiz-adv-x="1005" d="M72 0v20q4 0 11 1.5t24.5 6t31 11t24.5 18.5t11 27v1108q0 30 -24.5 47t-49.5 19l-24 2v20h860v-197l-59 177h-621v-601h446l58 158v-328l-58 150h-446v-619h623l67 263v-283h-874zM301 1479l92 92l92 -92l-92 -93zM555 1479l92 92l94 -92l-94 -93z" />
<glyph unicode="&#xcc;" horiz-adv-x="409" d="M61 0v20q4 0 11 1.5t24.5 6t30.5 11t24 18.5t11 27v1108q0 30 -24.5 47t-49.5 19l-25 2v20h281v-20q-4 0 -11 -0.5t-24 -4t-30 -10t-24 -20.5t-11 -33v-1108q0 -24 25.5 -40t50.5 -20l26 -4v-20h-285zM92 1499l10 17l17 6l194 -127l-2 -9z" />
<glyph unicode="&#xcd;" horiz-adv-x="409" d="M61 0v20q4 0 11 1.5t24.5 6t30.5 11t24 18.5t11 27v1108q0 30 -24.5 47t-49.5 19l-25 2v20h281v-20q-4 0 -11 -0.5t-24 -4t-30 -10t-24 -20.5t-11 -33v-1108q0 -24 25.5 -40t50.5 -20l26 -4v-20h-285zM92 1395l195 127l16 -6l10 -17l-219 -113z" />
<glyph unicode="&#xce;" horiz-adv-x="409" d="M-18 1409l221 123l213 -123l-10 -16l-17 -7l-186 138l-195 -138l-16 7zM61 0v20q4 0 11 1.5t24.5 6t30.5 11t24 18.5t11 27v1108q0 30 -24.5 47t-49.5 19l-25 2v20h281v-20q-4 0 -11 -0.5t-24 -4t-30 -10t-24 -20.5t-11 -33v-1108q0 -24 25.5 -40t50.5 -20l26 -4v-20 h-285z" />
<glyph unicode="&#xcf;" horiz-adv-x="409" d="M-12 1479l92 92l92 -92l-92 -93zM61 0v20q4 0 11 1.5t24.5 6t30.5 11t24 18.5t11 27v1108q0 30 -24.5 47t-49.5 19l-25 2v20h281v-20q-4 0 -11 -0.5t-24 -4t-30 -10t-24 -20.5t-11 -33v-1108q0 -24 25.5 -40t50.5 -20l26 -4v-20h-285zM242 1479l92 92l94 -92l-94 -93z " />
<glyph unicode="&#xd0;" horiz-adv-x="1052" d="M-14 610v13l14 8h127v561q0 30 -25.5 47t-51.5 19l-25 2v20h495q206 0 338.5 -164.5t132.5 -441.5q0 -163 -49 -294.5t-130 -212.5t-179.5 -124t-202.5 -43h-405v20q4 1 11 2t24.5 6.5t31 11.5t24.5 16.5t11 21.5v532h-141zM209 20h246q26 0 59.5 9.5t75 32t83 56t81 86 t69 117t48 154.5t18.5 193q0 263 -106.5 427.5t-262.5 164.5h-311v-629h137v-13l-16 -8h-121v-590z" />
<glyph unicode="&#xd1;" horiz-adv-x="1116" d="M72 0v20q4 0 11 1.5t24.5 6t31 11t24.5 18.5t11 27v1042l-96 154h88l758 -1210v1210h120v-20q0 2 -25.5 -2.5t-51 -20.5t-25.5 -41v-1157l25 -39h-90l-684 1096v-1096h-121zM410 1386q0 29 17.5 55.5t59.5 26.5q32 0 79 -24.5t75 -24.5q45 0 45 49h21q0 -28 -18 -55 t-58 -27q-33 0 -80 24t-74 24q-47 0 -47 -48h-20z" />
<glyph unicode="&#xd2;" horiz-adv-x="1325" d="M63 682q5 159 79.5 296.5t208 222.5t296.5 85q174 0 319 -95.5t224 -250t74 -328.5q-5 -161 -81 -300.5t-209.5 -224.5t-293.5 -85q-171 0 -316 95.5t-226 252t-75 332.5zM130 591q21 -109 77.5 -208t137.5 -170t180.5 -112.5t199.5 -41.5q210 0 362 174 q82 111 110.5 234t7 232t-79 209.5t-139.5 172.5t-183.5 115t-202.5 43q-212 0 -356 -174q-80 -116 -107.5 -240.5t-6.5 -233.5zM563 1499l10 17l17 6l194 -127l-2 -9z" />
<glyph unicode="&#xd3;" horiz-adv-x="1325" d="M63 682q5 159 79.5 296.5t208 222.5t296.5 85q174 0 319 -95.5t224 -250t74 -328.5q-5 -161 -81 -300.5t-209.5 -224.5t-293.5 -85q-171 0 -316 95.5t-226 252t-75 332.5zM130 591q21 -109 77.5 -208t137.5 -170t180.5 -112.5t199.5 -41.5q210 0 362 174 q82 111 110.5 234t7 232t-79 209.5t-139.5 172.5t-183.5 115t-202.5 43q-212 0 -356 -174q-80 -116 -107.5 -240.5t-6.5 -233.5zM563 1395l195 127l16 -6l10 -17l-219 -113z" />
<glyph unicode="&#xd4;" horiz-adv-x="1325" d="M63 682q5 159 79.5 296.5t208 222.5t296.5 85q174 0 319 -95.5t224 -250t74 -328.5q-5 -161 -81 -300.5t-209.5 -224.5t-293.5 -85q-171 0 -316 95.5t-226 252t-75 332.5zM130 591q21 -109 77.5 -208t137.5 -170t180.5 -112.5t199.5 -41.5q210 0 362 174 q82 111 110.5 234t7 232t-79 209.5t-139.5 172.5t-183.5 115t-202.5 43q-212 0 -356 -174q-80 -116 -107.5 -240.5t-6.5 -233.5zM453 1409l221 123l213 -123l-10 -16l-17 -7l-186 138l-195 -138l-16 7z" />
<glyph unicode="&#xd5;" horiz-adv-x="1325" d="M63 682q5 159 79.5 296.5t208 222.5t296.5 85q174 0 319 -95.5t224 -250t74 -328.5q-5 -161 -81 -300.5t-209.5 -224.5t-293.5 -85q-171 0 -316 95.5t-226 252t-75 332.5zM130 591q21 -109 77.5 -208t137.5 -170t180.5 -112.5t199.5 -41.5q210 0 362 174 q82 111 110.5 234t7 232t-79 209.5t-139.5 172.5t-183.5 115t-202.5 43q-212 0 -356 -174q-80 -116 -107.5 -240.5t-6.5 -233.5zM524 1386q0 28 18 55t60 27q32 0 79 -24.5t75 -24.5q45 0 45 49h20q0 -28 -18 -55t-58 -27q-33 0 -80 24t-73 24q-47 0 -47 -48h-21z" />
<glyph unicode="&#xd6;" horiz-adv-x="1325" d="M63 682q5 159 79.5 296.5t208 222.5t296.5 85q174 0 319 -95.5t224 -250t74 -328.5q-5 -161 -81 -300.5t-209.5 -224.5t-293.5 -85q-171 0 -316 95.5t-226 252t-75 332.5zM130 591q21 -109 77.5 -208t137.5 -170t180.5 -112.5t199.5 -41.5q210 0 362 174 q82 111 110.5 234t7 232t-79 209.5t-139.5 172.5t-183.5 115t-202.5 43q-212 0 -356 -174q-80 -116 -107.5 -240.5t-6.5 -233.5zM459 1479l92 92l92 -92l-92 -93zM713 1479l92 92l94 -92l-94 -93z" />
<glyph unicode="&#xd7;" horiz-adv-x="589" d="M61 354l220 219l-220 220l15 14l219 -219l219 219l14 -14l-219 -220l219 -219l-14 -14l-219 219l-219 -219z" />
<glyph unicode="&#xd8;" horiz-adv-x="1406" d="M35 682q5 159 79.5 296.5t208.5 222.5t298 85q106 0 204 -37q7 26 27 85t25 71l18 -6q-3 -10 -13 -41.5t-22.5 -70t-15.5 -46.5q180 -75 288.5 -250t102.5 -379q-4 -120 -50 -231.5t-122.5 -195t-184.5 -133.5t-229 -50q-105 0 -203 39q-10 -30 -45 -135.5t-39 -116.5 l-20 6q17 46 84 252q-179 77 -288.5 253.5t-102.5 381.5zM93 686.5q8 -186.5 106 -335.5t252 -228q33 98 185.5 558.5t166.5 502.5q-110 55 -232 55q-209 0 -356 -174q-130 -192 -122 -378.5zM471 113q111 -54 225 -54q211 0 363 174q133 187 125 372.5t-107.5 337 t-255.5 233.5q-194 -584 -350 -1063z" />
<glyph unicode="&#xd9;" horiz-adv-x="1236" d="M31 1260v20h180v-768q0 -246 111 -375t305 -129q86 0 155 26.5t116.5 72t79 110t46 138t14.5 157.5v711l-157 57h325l-147 -57v-711q-1 -88 -15.5 -162.5t-47.5 -143.5t-83.5 -117t-128.5 -76.5t-178 -28.5q-101 0 -183 29t-148.5 90.5t-104.5 168t-41 250.5v670 q0 30 -24.5 47t-48.5 19zM438 1499l11 17l16 6l194 -127l-2 -9z" />
<glyph unicode="&#xda;" horiz-adv-x="1236" d="M31 1260v20h180v-768q0 -246 111 -375t305 -129q86 0 155 26.5t116.5 72t79 110t46 138t14.5 157.5v711l-157 57h325l-147 -57v-711q-1 -88 -15.5 -162.5t-47.5 -143.5t-83.5 -117t-128.5 -76.5t-178 -28.5q-101 0 -183 29t-148.5 90.5t-104.5 168t-41 250.5v670 q0 30 -24.5 47t-48.5 19zM438 1395l195 127l16 -6l10 -17l-219 -113z" />
<glyph unicode="&#xdb;" horiz-adv-x="1236" d="M31 1260v20h180v-768q0 -246 111 -375t305 -129q86 0 155 26.5t116.5 72t79 110t46 138t14.5 157.5v711l-157 57h325l-147 -57v-711q-1 -88 -15.5 -162.5t-47.5 -143.5t-83.5 -117t-128.5 -76.5t-178 -28.5q-101 0 -183 29t-148.5 90.5t-104.5 168t-41 250.5v670 q0 30 -24.5 47t-48.5 19zM328 1409l221 123l213 -123l-10 -16l-17 -7l-186 138l-195 -138l-16 7z" />
<glyph unicode="&#xdc;" horiz-adv-x="1236" d="M31 1260v20h180v-768q0 -246 111 -375t305 -129q86 0 155 26.5t116.5 72t79 110t46 138t14.5 157.5v711l-157 57h325l-147 -57v-711q-1 -88 -15.5 -162.5t-47.5 -143.5t-83.5 -117t-128.5 -76.5t-178 -28.5q-101 0 -183 29t-148.5 90.5t-104.5 168t-41 250.5v670 q0 30 -24.5 47t-48.5 19zM336 1479l92 92l92 -92l-92 -93zM590 1479l92 92l94 -92l-94 -93z" />
<glyph unicode="&#xdd;" horiz-adv-x="1003" d="M6 1282h197l2 -20q-2 0 -4.5 -0.5t-11.5 -2.5t-15.5 -5t-15 -7.5t-11.5 -10t-5 -13.5t5 -17l385 -637l406 652l-139 55h198l-452 -727v-465q0 -24 25.5 -40t51.5 -20l25 -4v-20h-184v526zM381 1395l194 127l17 -6l10 -17l-219 -113z" />
<glyph unicode="&#xde;" horiz-adv-x="970" d="M72 0v20q0 -2 25.5 4t51 20t25.5 30v1124q0 27 -25.5 42.5t-50.5 17.5l-26 2v20h182v-233h258q106 0 191.5 -35t138 -92.5t81 -130.5t28.5 -150t-28.5 -150t-81 -130.5t-138 -92.5t-191.5 -35h-258v-231h-182zM254 250h266q80 0 144 33.5t103.5 88t61 124.5t21.5 143 t-21.5 143t-61 124.5t-103.5 88t-144 33.5h-266v-778z" />
<glyph unicode="&#xdf;" horiz-adv-x="1226" d="M61 2v18q4 0 11 0.5t25 4t31.5 9.5t24.5 20t11 32v719q0 110 25 197t68 144t103.5 95t128.5 54t146 16q124 0 311 -76l-420 -522q135 -5 249.5 -32.5t202.5 -76t137.5 -123.5t49.5 -170q0 -63 -19.5 -121t-58.5 -107t-106.5 -78.5t-155.5 -29.5q-92 0 -165 45 t-109.5 108.5t-36.5 129.5l274 2l-180 -67q0 -3 6 -22t22.5 -49t39.5 -58t62 -48t85 -20q134 0 187 78.5t53 236.5q0 193 -137.5 281t-436.5 102l414 512q-116 84 -268 84q-87 0 -155.5 -23t-122 -72.5t-82.5 -135t-29 -201.5v-856h-185z" />
<glyph unicode="&#xe0;" horiz-adv-x="931" d="M80 223q9 81 49.5 132.5t108 76.5t136.5 39t163 33.5t159 46.5v139q0 111 -54 159t-142 48q-114 0 -256 -63l-64 -144l-2 236l58 -70q149 53 229 62q129 11 218.5 -58.5t96.5 -222.5l-2 -580q0 -13 9 -21.5t23 -11t20.5 -3.5t11.5 -1v-20h-76l-70 57v117 q-164 -188 -354 -188q-114 0 -193.5 65t-68.5 172zM180 233q-6 -92 48 -148t143 -56q76 0 160.5 44t164.5 134v317q-50 -18 -118.5 -35.5t-118 -28t-103 -29.5t-88.5 -41.5t-59.5 -62.5t-28.5 -94zM385 1137l10 16l17 6l194 -127l-2 -8z" />
<glyph unicode="&#xe1;" horiz-adv-x="931" d="M80 223q9 81 49.5 132.5t108 76.5t136.5 39t163 33.5t159 46.5v139q0 111 -54 159t-142 48q-114 0 -256 -63l-64 -144l-2 236l58 -70q149 53 229 62q129 11 218.5 -58.5t96.5 -222.5l-2 -580q0 -13 9 -21.5t23 -11t20.5 -3.5t11.5 -1v-20h-76l-70 57v117 q-164 -188 -354 -188q-114 0 -193.5 65t-68.5 172zM180 233q-6 -92 48 -148t143 -56q76 0 160.5 44t164.5 134v317q-50 -18 -118.5 -35.5t-118 -28t-103 -29.5t-88.5 -41.5t-59.5 -62.5t-28.5 -94zM385 1032l195 127l16 -6l10 -16l-219 -113z" />
<glyph unicode="&#xe2;" horiz-adv-x="931" d="M80 223q9 81 49.5 132.5t108 76.5t136.5 39t163 33.5t159 46.5v139q0 111 -54 159t-142 48q-114 0 -256 -63l-64 -144l-2 236l58 -70q149 53 229 62q129 11 218.5 -58.5t96.5 -222.5l-2 -580q0 -13 9 -21.5t23 -11t20.5 -3.5t11.5 -1v-20h-76l-70 57v117 q-164 -188 -354 -188q-114 0 -193.5 65t-68.5 172zM180 233q-6 -92 48 -148t143 -56q76 0 160.5 44t164.5 134v317q-50 -18 -118.5 -35.5t-118 -28t-103 -29.5t-88.5 -41.5t-59.5 -62.5t-28.5 -94zM274 1047l222 122l213 -122l-11 -17l-16 -6l-186 137l-195 -137l-16 6z" />
<glyph unicode="&#xe3;" horiz-adv-x="931" d="M80 223q9 81 49.5 132.5t108 76.5t136.5 39t163 33.5t159 46.5v139q0 111 -54 159t-142 48q-114 0 -256 -63l-64 -144l-2 236l58 -70q149 53 229 62q129 11 218.5 -58.5t96.5 -222.5l-2 -580q0 -13 9 -21.5t23 -11t20.5 -3.5t11.5 -1v-20h-76l-70 57v117 q-164 -188 -354 -188q-114 0 -193.5 65t-68.5 172zM180 233q-6 -92 48 -148t143 -56q76 0 160.5 44t164.5 134v317q-50 -18 -118.5 -35.5t-118 -28t-103 -29.5t-88.5 -41.5t-59.5 -62.5t-28.5 -94zM346 1024q0 28 18 55t60 27q32 0 79 -24.5t75 -24.5q45 0 45 49h20 q0 -28 -18 -55t-58 -27q-33 0 -80 23.5t-73 23.5q-47 0 -47 -47h-21z" />
<glyph unicode="&#xe4;" horiz-adv-x="931" d="M80 223q9 81 49.5 132.5t108 76.5t136.5 39t163 33.5t159 46.5v139q0 111 -54 159t-142 48q-114 0 -256 -63l-64 -144l-2 236l58 -70q149 53 229 62q129 11 218.5 -58.5t96.5 -222.5l-2 -580q0 -13 9 -21.5t23 -11t20.5 -3.5t11.5 -1v-20h-76l-70 57v117 q-164 -188 -354 -188q-114 0 -193.5 65t-68.5 172zM180 233q-6 -92 48 -148t143 -56q76 0 160.5 44t164.5 134v317q-50 -18 -118.5 -35.5t-118 -28t-103 -29.5t-88.5 -41.5t-59.5 -62.5t-28.5 -94zM283 1116l92 92l92 -92l-92 -92zM537 1116l92 92l94 -92l-94 -92z" />
<glyph unicode="&#xe5;" horiz-adv-x="931" d="M80 223q9 81 49.5 132.5t108 76.5t136.5 39t163 33.5t159 46.5v139q0 111 -54 159t-142 48q-114 0 -256 -63l-64 -144l-2 236l58 -70q149 53 229 62q129 11 218.5 -58.5t96.5 -222.5l-2 -580q0 -13 9 -21.5t23 -11t20.5 -3.5t11.5 -1v-20h-76l-70 57v117 q-164 -188 -354 -188q-114 0 -193.5 65t-68.5 172zM180 233q-6 -92 48 -148t143 -56q76 0 160.5 44t164.5 134v317q-50 -18 -118.5 -35.5t-118 -28t-103 -29.5t-88.5 -41.5t-59.5 -62.5t-28.5 -94zM317 1186q0 69 48 116.5t116 47.5t116 -47.5t48 -116.5q0 -67 -48 -114.5 t-116 -47.5t-116 47.5t-48 114.5zM338 1186q0 -59 41.5 -100.5t101.5 -41.5t102 41.5t42 100.5q0 60 -42 101.5t-102 41.5t-101.5 -41.5t-41.5 -101.5z" />
<glyph unicode="&#xe6;" horiz-adv-x="1654" d="M104 223q7 68 39 116t76 72.5t108 43t124.5 28t136.5 27.5t133 41v139q0 207 -199 207q-110 0 -256 -63l-61 -144l-2 236l57 -70q149 53 227 62q110 10 194 -40.5t112 -162.5q65 98 172 153.5t235 55.5q89 0 161.5 -22.5t116.5 -57t73.5 -78t41 -82t11.5 -72.5h-818 q-23 -88 -12 -176q21 -165 127.5 -265.5t284.5 -113.5q118 -9 221 43.5t178 159.5l10 -14q-135 -258 -440 -258q-121 2 -226.5 68t-162.5 186q-51 -98 -169 -177t-239 -79q-110 0 -187.5 65t-66.5 172zM205 233q-7 -84 48.5 -135t145.5 -51t184.5 53.5t172.5 161.5 q-34 91 -37 182q0 42 2 62v18q-51 -18 -119 -35.5t-118 -28t-103.5 -29.5t-88.5 -41.5t-59 -62.5t-28 -94zM793 633h733q-1 6 -2.5 16t-9.5 38.5t-20 54.5t-36.5 58t-55.5 55t-79 38.5t-106 15.5q-153 0 -267 -74.5t-157 -201.5z" />
<glyph unicode="&#xe7;" horiz-adv-x="972" d="M72 436q0 143 66.5 254.5t172.5 169.5t230 58q95 3 245 -37l78 47v-250l-96 182q-36 18 -96.5 30.5t-110.5 12.5q-113 0 -205.5 -46t-142 -121t-75.5 -165t-5.5 -180.5t67.5 -165t143.5 -121.5t223.5 -47q96 0 186.5 58.5t137.5 144.5l10 -16q-62 -128 -170.5 -192 t-222.5 -64q-29 0 -43 2l-70 -99h33q96 0 165 -39.5t69 -111.5q0 -71 -67.5 -111.5t-150.5 -40.5q-57 0 -120 23v125l38 -109q33 -18 82 -18q56 0 85.5 33.5t29.5 97.5t-36.5 97.5t-94.5 33.5h-51l-10 20l59 105q-67 13 -127.5 45t-112.5 84.5t-83 132.5t-31 178z" />
<glyph unicode="&#xe8;" horiz-adv-x="1028" d="M72 444q-7 207 134 343.5t347 136.5q89 0 161.5 -22.5t116 -57t73 -78t41 -82t11.5 -72.5h-817q-21 -80 -12 -176q21 -165 127.5 -265.5t284.5 -113.5q120 -9 222 43t177 160l10 -14q-135 -258 -440 -258q-80 1 -156 32t-137.5 87.5t-100 144t-42.5 192.5zM145 633h734 q-1 6 -2.5 16t-10 38.5t-20.5 54.5t-36.5 58t-55.5 55t-79 38.5t-106 15.5q-153 0 -267 -74.5t-157 -201.5zM444 1137l11 16l16 6l195 -127l-2 -8z" />
<glyph unicode="&#xe9;" horiz-adv-x="1028" d="M72 444q-7 207 134 343.5t347 136.5q89 0 161.5 -22.5t116 -57t73 -78t41 -82t11.5 -72.5h-817q-21 -80 -12 -176q21 -165 127.5 -265.5t284.5 -113.5q120 -9 222 43t177 160l10 -14q-135 -258 -440 -258q-80 1 -156 32t-137.5 87.5t-100 144t-42.5 192.5zM145 633h734 q-1 6 -2.5 16t-10 38.5t-20.5 54.5t-36.5 58t-55.5 55t-79 38.5t-106 15.5q-153 0 -267 -74.5t-157 -201.5zM444 1032l195 127l16 -6l11 -16l-220 -113z" />
<glyph unicode="&#xea;" horiz-adv-x="1028" d="M72 444q-7 207 134 343.5t347 136.5q89 0 161.5 -22.5t116 -57t73 -78t41 -82t11.5 -72.5h-817q-21 -80 -12 -176q21 -165 127.5 -265.5t284.5 -113.5q120 -9 222 43t177 160l10 -14q-135 -258 -440 -258q-80 1 -156 32t-137.5 87.5t-100 144t-42.5 192.5zM145 633h734 q-1 6 -2.5 16t-10 38.5t-20.5 54.5t-36.5 58t-55.5 55t-79 38.5t-106 15.5q-153 0 -267 -74.5t-157 -201.5zM332 1047l221 122l213 -122l-10 -17l-17 -6l-186 137l-195 -137l-16 6z" />
<glyph unicode="&#xeb;" horiz-adv-x="1028" d="M72 444q-7 207 134 343.5t347 136.5q89 0 161.5 -22.5t116 -57t73 -78t41 -82t11.5 -72.5h-817q-21 -80 -12 -176q21 -165 127.5 -265.5t284.5 -113.5q120 -9 222 43t177 160l10 -14q-135 -258 -440 -258q-80 1 -156 32t-137.5 87.5t-100 144t-42.5 192.5zM145 633h734 q-1 6 -2.5 16t-10 38.5t-20.5 54.5t-36.5 58t-55.5 55t-79 38.5t-106 15.5q-153 0 -267 -74.5t-157 -201.5zM340 1116l92 92l92 -92l-92 -92zM594 1116l92 92l94 -92l-94 -92z" />
<glyph unicode="&#xec;" horiz-adv-x="430" d="M72 881v20h184v-815q0 -57 102 -66v-20h-184v815q0 57 -102 66zM94 1137l10 16l17 6l194 -127l-2 -8z" />
<glyph unicode="&#xed;" horiz-adv-x="430" d="M72 881v20h184v-815q0 -57 102 -66v-20h-184v815q0 57 -102 66zM94 1032l195 127l16 -6l10 -16l-219 -113z" />
<glyph unicode="&#xee;" horiz-adv-x="430" d="M-16 1047l221 122l213 -122l-10 -17l-17 -6l-186 137l-195 -137l-16 6zM72 881v20h184v-815q0 -57 102 -66v-20h-184v815q0 57 -102 66z" />
<glyph unicode="&#xef;" horiz-adv-x="430" d="M-10 1116l92 92l92 -92l-92 -92zM72 881v20h184v-815q0 -57 102 -66v-20h-184v815q0 57 -102 66zM244 1116l92 92l94 -92l-94 -92z" />
<glyph unicode="&#xf0;" horiz-adv-x="1073" d="M102 387q0 88 31.5 155t84.5 105t114.5 56t130.5 18q157 0 277 -69t175 -158q14 162 -39.5 331t-158.5 281l-225 -160l-13 17l223 159q-121 121 -272 127v21q159 0 305 -125l180 127l13 -17l-176 -125q109 -97 174 -253t65 -363q0 -240 -128.5 -384t-362.5 -144 q-106 0 -199 58t-146 150.5t-53 192.5zM157.5 269.5q12.5 -48.5 37 -90.5t57 -69t61 -46.5t48.5 -27.5l20 -9q47 -21 117 -21q89 0 166.5 42t129.5 109.5t84 150.5t37 169q-42 78 -167 149.5t-252 71.5q-190 0 -285 -172q-41 -73 -53.5 -140.5t0 -116z" />
<glyph unicode="&#xf1;" horiz-adv-x="960" d="M49 0v20q4 0 11 0.5t24.5 4t30.5 9.5t24 19t11 31v729q0 67 -99 70v18h107l73 -82v-284q11 31 21.5 58t29.5 66.5t39 72t48 66.5t57.5 57.5t67.5 38.5t79 15q32 0 64 -8t65 -27.5t58 -49t41 -77t16 -106.5v-553q0 -68 98 -68v-20h-180v627q0 126 -44.5 177.5t-127.5 51.5 q-56 0 -108 -32.5t-87 -77t-65.5 -103t-45.5 -99t-26 -77.5v-397l103 -70h-285zM344 1024q0 28 18 55t60 27q32 0 78.5 -24.5t74.5 -24.5q46 0 46 49h20q0 -28 -18 -55t-58 -27q-33 0 -80 23.5t-73 23.5q-47 0 -47 -47h-21z" />
<glyph unicode="&#xf2;" horiz-adv-x="1042" d="M72 436q0 143 66.5 254.5t172.5 169.5t230 58q58 0 117.5 -16t117 -51.5t102 -86t72 -127.5t27.5 -168q0 -143 -67 -254.5t-173.5 -169t-230.5 -57.5q-58 0 -117 15.5t-116.5 51t-102 86.5t-71.5 127.5t-27 167.5zM124.5 515.5q-3.5 -88.5 28 -177t90 -156.5t141 -110.5 t171.5 -42.5q86 0 168 39q97 61 148.5 148.5t55 176t-28 177t-90 156.5t-141 110.5t-171.5 42.5q-86 0 -168 -39q-97 -61 -148.5 -148.5t-55 -176zM430 1137l10 16l17 6l194 -127l-2 -8z" />
<glyph unicode="&#xf3;" horiz-adv-x="1042" d="M72 436q0 143 66.5 254.5t172.5 169.5t230 58q58 0 117.5 -16t117 -51.5t102 -86t72 -127.5t27.5 -168q0 -143 -67 -254.5t-173.5 -169t-230.5 -57.5q-58 0 -117 15.5t-116.5 51t-102 86.5t-71.5 127.5t-27 167.5zM124.5 515.5q-3.5 -88.5 28 -177t90 -156.5t141 -110.5 t171.5 -42.5q86 0 168 39q97 61 148.5 148.5t55 176t-28 177t-90 156.5t-141 110.5t-171.5 42.5q-86 0 -168 -39q-97 -61 -148.5 -148.5t-55 -176zM430 1032l195 127l16 -6l10 -16l-219 -113z" />
<glyph unicode="&#xf4;" horiz-adv-x="1042" d="M72 436q0 143 66.5 254.5t172.5 169.5t230 58q58 0 117.5 -16t117 -51.5t102 -86t72 -127.5t27.5 -168q0 -143 -67 -254.5t-173.5 -169t-230.5 -57.5q-58 0 -117 15.5t-116.5 51t-102 86.5t-71.5 127.5t-27 167.5zM124.5 515.5q-3.5 -88.5 28 -177t90 -156.5t141 -110.5 t171.5 -42.5q86 0 168 39q97 61 148.5 148.5t55 176t-28 177t-90 156.5t-141 110.5t-171.5 42.5q-86 0 -168 -39q-97 -61 -148.5 -148.5t-55 -176zM319 1047l222 122l213 -122l-11 -17l-16 -6l-186 137l-195 -137l-16 6z" />
<glyph unicode="&#xf5;" horiz-adv-x="1042" d="M72 436q0 143 66.5 254.5t172.5 169.5t230 58q58 0 117.5 -16t117 -51.5t102 -86t72 -127.5t27.5 -168q0 -143 -67 -254.5t-173.5 -169t-230.5 -57.5q-58 0 -117 15.5t-116.5 51t-102 86.5t-71.5 127.5t-27 167.5zM124.5 515.5q-3.5 -88.5 28 -177t90 -156.5t141 -110.5 t171.5 -42.5q86 0 168 39q97 61 148.5 148.5t55 176t-28 177t-90 156.5t-141 110.5t-171.5 42.5q-86 0 -168 -39q-97 -61 -148.5 -148.5t-55 -176zM391 1024q0 28 18 55t60 27q32 0 79 -24.5t75 -24.5q45 0 45 49h20q0 -28 -18 -55t-58 -27q-32 0 -79 23.5t-74 23.5 q-47 0 -47 -47h-21z" />
<glyph unicode="&#xf6;" horiz-adv-x="1042" d="M72 436q0 143 66.5 254.5t172.5 169.5t230 58q58 0 117.5 -16t117 -51.5t102 -86t72 -127.5t27.5 -168q0 -143 -67 -254.5t-173.5 -169t-230.5 -57.5q-58 0 -117 15.5t-116.5 51t-102 86.5t-71.5 127.5t-27 167.5zM124.5 515.5q-3.5 -88.5 28 -177t90 -156.5t141 -110.5 t171.5 -42.5q86 0 168 39q97 61 148.5 148.5t55 176t-28 177t-90 156.5t-141 110.5t-171.5 42.5q-86 0 -168 -39q-97 -61 -148.5 -148.5t-55 -176zM326 1116l92 92l92 -92l-92 -92zM580 1116l92 92l94 -92l-94 -92z" />
<glyph unicode="&#xf7;" horiz-adv-x="1058" d="M61 580v12l15 8h921v-12l-16 -8h-920zM242 250l92 92l94 -92l-94 -92zM242 938l92 92l94 -92l-94 -92z" />
<glyph unicode="&#xf8;" horiz-adv-x="1048" d="M61 436q0 143 66.5 254.5t172.5 169.5t230 58q61 0 129 -19l123 371l21 -6l-123 -371q125 -44 206 -150.5t81 -273.5q0 -143 -67 -254.5t-173.5 -169t-230.5 -57.5q-43 0 -111 14l-115 -348l-20 6l115 348q-60 18 -112.5 52.5t-96.5 86t-69.5 126t-25.5 163.5zM114 510 q-1 -91 30.5 -178.5t95.5 -157.5t145 -108l258 778q-75 35 -158 35q-86 0 -168 -39q-99 -63 -150.5 -151t-52.5 -179zM403 57q67 -28 142 -28q86 0 168 39q81 51 130.5 121t64 142.5t4 149t-44.5 143t-87 122.5t-118 90z" />
<glyph unicode="&#xf9;" d="M41 881v20h180v-620q0 -128 41 -179t133 -51q59 0 111 25t87 60.5t64 83t43.5 82t24.5 67.5v450q0 64 -100 64v18h182v-811q0 -70 98 -70v-20h-106l-74 84v225q-19 -49 -44.5 -94t-67 -98t-101.5 -85t-129 -32q-41 0 -81 13.5t-78 42.5t-61.5 83.5t-23.5 126.5v547 q0 68 -98 68zM322 1137l10 16l16 6l195 -127l-2 -8z" />
<glyph unicode="&#xfa;" d="M41 881v20h180v-620q0 -128 41 -179t133 -51q59 0 111 25t87 60.5t64 83t43.5 82t24.5 67.5v450q0 64 -100 64v18h182v-811q0 -70 98 -70v-20h-106l-74 84v225q-19 -49 -44.5 -94t-67 -98t-101.5 -85t-129 -32q-41 0 -81 13.5t-78 42.5t-61.5 83.5t-23.5 126.5v547 q0 68 -98 68zM322 1032l194 127l16 -6l11 -16l-219 -113z" />
<glyph unicode="&#xfb;" d="M41 881v20h180v-620q0 -128 41 -179t133 -51q59 0 111 25t87 60.5t64 83t43.5 82t24.5 67.5v450q0 64 -100 64v18h182v-811q0 -70 98 -70v-20h-106l-74 84v225q-19 -49 -44.5 -94t-67 -98t-101.5 -85t-129 -32q-41 0 -81 13.5t-78 42.5t-61.5 83.5t-23.5 126.5v547 q0 68 -98 68zM211 1047l221 122l213 -122l-10 -17l-17 -6l-186 137l-194 -137l-17 6z" />
<glyph unicode="&#xfc;" d="M41 881v20h180v-620q0 -128 41 -179t133 -51q59 0 111 25t87 60.5t64 83t43.5 82t24.5 67.5v450q0 64 -100 64v18h182v-811q0 -70 98 -70v-20h-106l-74 84v225q-19 -49 -44.5 -94t-67 -98t-101.5 -85t-129 -32q-41 0 -81 13.5t-78 42.5t-61.5 83.5t-23.5 126.5v547 q0 68 -98 68zM217 1116l92 92l92 -92l-92 -92zM471 1116l92 92l94 -92l-94 -92z" />
<glyph unicode="&#xfd;" horiz-adv-x="897" d="M12 901h215l6 -18h-7t-16.5 -0.5t-22 -2.5t-22.5 -6.5t-18 -11.5t-8.5 -17.5t6.5 -25.5l357 -747l350 780l-152 49h197l-569 -1270q-30 -66 -63 -86t-89 -20v125l43 -64q59 -3 88 49l150 336zM334 1032l194 127l17 -6l10 -16l-219 -113z" />
<glyph unicode="&#xfe;" horiz-adv-x="956" d="M31 -377q38 1 70 25.5t32 40.5v1480q0 24 -10 42.5t-24.5 27t-29 14t-24.5 6.5l-10 1v20h178v-612q19 29 43.5 57.5t68.5 67.5t104 63.5t126 24.5q158 0 242 -142q76 -127 63 -308q-13 -184 -112 -307q-108 -133 -273 -134q-75 0 -145.5 26.5t-116.5 77.5v-432l-80 -57 h-102v18zM213 131q26 -45 90 -78t137 -33q153 0 244 152q79 133 79 315q-1 177 -75 280q-62 85 -156 85t-186.5 -74.5t-132.5 -150.5v-496z" />
<glyph unicode="&#xff;" horiz-adv-x="897" d="M12 901h215l6 -18h-7t-16.5 -0.5t-22 -2.5t-22.5 -6.5t-18 -11.5t-8.5 -17.5t6.5 -25.5l357 -747l350 780l-152 49h197l-569 -1270q-30 -66 -63 -86t-89 -20v125l43 -64q59 -3 88 49l150 336zM231 1116l93 92l92 -92l-92 -92zM485 1116l93 92l94 -92l-94 -92z" />
<glyph unicode="&#x152;" horiz-adv-x="1525" d="M61 647q4 132 50 248.5t124.5 203t192 137t246.5 50.5q25 0 71 -4h709v-197l-57 177h-621l-2 -600h447l57 155v-325l-57 149h-447v-618h623l67 262v-283h-813q-122 0 -234 56t-190.5 145.5t-124 207t-41.5 236.5zM127.5 606q17.5 -106 69 -204t127.5 -169.5t170 -117.5 t192 -54q8 16 8 25v1108q0 21 -16 41q-37 6 -76 6q-209 0 -358 -176q-78 -112 -106 -232.5t-10.5 -226.5z" />
<glyph unicode="&#x153;" horiz-adv-x="1914" d="M61 436q0 143 66.5 254.5t172.5 169.5t230 58q127 0 245.5 -73.5t166.5 -213.5q51 133 174.5 213t278.5 80q89 0 161.5 -22.5t116 -57t73 -78t41 -82t11.5 -72.5h-817q-24 -80 -12 -176q19 -163 126 -264.5t283 -114.5q120 -7 223.5 45t178.5 158l10 -14 q-138 -259 -440 -256q-134 0 -249 82t-163 225q-50 -143 -171.5 -226t-270.5 -83q-74 0 -148 26.5t-139.5 78t-106.5 141t-41 202.5zM120.5 567q-11.5 -75 0.5 -153t52.5 -146.5t95 -122.5t127 -85t149.5 -31q86 0 168 39q84 53 134.5 125.5t62 147.5t-0.5 153t-52.5 146.5 t-95 122.5t-127 85t-149.5 31q-86 0 -168 -39q-84 -53 -134.5 -125.5t-62 -147.5zM987 633h733q-1 6 -2.5 16t-10 38.5t-20.5 54.5t-36.5 58t-55.5 55t-79.5 38.5t-106.5 15.5q-153 0 -266 -74.5t-156 -201.5z" />
<glyph unicode="&#x178;" horiz-adv-x="1003" d="M6 1282h197l2 -20q-2 0 -4.5 -0.5t-11.5 -2.5t-15.5 -5t-15 -7.5t-11.5 -10t-5 -13.5t5 -17l385 -637l406 652l-139 55h198l-452 -727v-465q0 -24 25.5 -40t51.5 -20l25 -4v-20h-184v526zM279 1479l92 92l92 -92l-92 -93zM532 1479l93 92l94 -92l-94 -93z" />
<glyph unicode="&#x2c6;" horiz-adv-x="638" d="M35 1212l221 123l213 -123l-10 -16l-17 -6l-186 137l-195 -137l-16 6z" />
<glyph unicode="&#x2dc;" horiz-adv-x="501" d="M102 1104q0 28 18 55t60 27q32 0 79 -24.5t75 -24.5q45 0 45 49h20q0 -29 -17.5 -55.5t-57.5 -26.5q-32 0 -80 23.5t-74 23.5q-47 0 -47 -47h-21z" />
<glyph unicode="&#x2000;" horiz-adv-x="857" />
<glyph unicode="&#x2001;" horiz-adv-x="1714" />
<glyph unicode="&#x2002;" horiz-adv-x="857" />
<glyph unicode="&#x2003;" horiz-adv-x="1714" />
<glyph unicode="&#x2004;" horiz-adv-x="571" />
<glyph unicode="&#x2005;" horiz-adv-x="428" />
<glyph unicode="&#x2006;" horiz-adv-x="285" />
<glyph unicode="&#x2007;" horiz-adv-x="285" />
<glyph unicode="&#x2008;" horiz-adv-x="214" />
<glyph unicode="&#x2009;" horiz-adv-x="342" />
<glyph unicode="&#x200a;" horiz-adv-x="95" />
<glyph unicode="&#x2010;" horiz-adv-x="481" d="M61 508v12l15 8h346v-12l-16 -8h-345z" />
<glyph unicode="&#x2011;" horiz-adv-x="481" d="M61 508v12l15 8h346v-12l-16 -8h-345z" />
<glyph unicode="&#x2012;" horiz-adv-x="481" d="M61 508v12l15 8h346v-12l-16 -8h-345z" />
<glyph unicode="&#x2013;" horiz-adv-x="937" d="M61 676v12l15 8h801v-12l-15 -8h-801z" />
<glyph unicode="&#x2014;" horiz-adv-x="1476" d="M61 676v12l15 8h1339v-12l-14 -8h-1340z" />
<glyph unicode="&#x2018;" horiz-adv-x="256" d="M96 1168q11 43 50 69.5t79 26.5h13l2 -11q-5 -1 -11.5 -3.5t-21 -11.5t-21.5 -21t-1 -33.5t30 -46.5l18 -17l-73 -73l-21 22q-54 56 -43 99z" />
<glyph unicode="&#x2019;" horiz-adv-x="256" d="M0 1094q5 1 11.5 3.5t21 11.5t21.5 21t1 33.5t-30 46.5l-19 17l74 73l20 -22q54 -56 43 -99t-50 -69.5t-79 -26.5h-12z" />
<glyph unicode="&#x201a;" horiz-adv-x="256" d="M0 10q5 1 11.5 3.5t21 12t21.5 21.5t1 33.5t-30 46.5l-19 16l74 74l20 -22q54 -56 43 -99t-50 -69.5t-79 -26.5h-12z" />
<glyph unicode="&#x201c;" horiz-adv-x="516" d="M86 1205q11 43 50 69t79 26h12l2 -10q-4 -1 -11 -3.5t-21.5 -11.5t-21 -21t-0.5 -33.5t30 -46.5l18 -17l-73 -74l-21 23q-54 56 -43 99zM307 1205q11 43 50 69t79 26h13l2 -10q-5 -1 -11.5 -3.5t-21 -11.5t-21.5 -21t-1 -33.5t30 -46.5l18 -17l-73 -74l-21 23 q-54 56 -43 99z" />
<glyph unicode="&#x201d;" horiz-adv-x="516" d="M66 1290l2 10h12q40 0 79 -26t50 -69t-43 -99l-21 -23l-73 74l18 17q24 25 30.5 46.5t-1.5 33.5t-19.5 21t-22.5 12zM287 1290l2 10h12q40 0 79 -26t50 -69t-43 -99l-20 -23l-74 74l18 17q24 25 30.5 46.5t-1.5 33.5t-19.5 21t-22.5 12z" />
<glyph unicode="&#x201e;" horiz-adv-x="540" d="M43 -80q5 1 11.5 3.5t21 12t21.5 21.5t1 33.5t-30 46.5l-19 16l74 74l20 -23q54 -56 43 -99t-50 -69t-79 -26h-12zM330 -80q4 1 11 3.5t21.5 12t21 21.5t0.5 33.5t-30 46.5l-18 16l74 74l20 -23q54 -56 43 -99t-50 -69t-79 -26h-12z" />
<glyph unicode="&#x2022;" horiz-adv-x="454" d="M104 717q0 51 36 87t87 36t87 -36t36 -87t-36 -87t-87 -36t-87 36t-36 87z" />
<glyph unicode="&#x2026;" horiz-adv-x="872" d="M-12 61l92 93l92 -93l-92 -92zM279 61l92 93l92 -93l-92 -92zM565 61l92 93l93 -93l-93 -92z" />
<glyph unicode="&#x202f;" horiz-adv-x="342" />
<glyph unicode="&#x2039;" horiz-adv-x="466" d="M61 430v19l345 311v-19l-252 -303l252 -301v-18z" />
<glyph unicode="&#x203a;" horiz-adv-x="466" d="M61 119v18l252 301l-252 303v19l345 -311v-19z" />
<glyph unicode="&#x205f;" horiz-adv-x="428" />
<glyph unicode="&#x20ac;" horiz-adv-x="1406" d="M61 496l9 32l268 -6q-16 97 -4 187l-217 -7l8 33l211 -4q16 111 62.5 209.5t120.5 176.5t183 123.5t238 45.5q96 0 252 -37l68 47v-280l-68 207q-107 46 -234 49q-131 0 -238 -45t-175.5 -121.5t-107.5 -172.5t-44 -204l750 8l-10 -35l-740 7q0 -95 25 -187l663 6 l-10 -34l-645 6q58 -177 202 -298t347 -130q108 -6 205 46.5t153 151.5l13 -14q-64 -126 -177.5 -190t-248.5 -64q-137 0 -260.5 69t-205.5 182t-112 247z" />
<glyph unicode="&#x2122;" horiz-adv-x="843" d="M63 1219v61h279v-39l152 -354l165 393h39v-8q-1 0 -3.5 -0.5t-8 -4t-9.5 -9t-7.5 -16.5t-3.5 -25v-316q0 -8 8 -13t16 -6l8 -1v-7h-59v343l-141 -338l2 -5h-29l-147 347v-347h-39v7q0 -1 8 0t16 6.5t8 13.5v334l-16 39h-84v-373q0 -8 8.5 -13t16.5 -6l8 -1v-7h-92v7 q32 2 32 20v373h-108z" />
<glyph unicode="&#x25fc;" horiz-adv-x="901" d="M0 0v901h901v-901h-901z" />
</font>
</defs>
</svg>
